<?xml version="1.0" encoding="UTF-8" standalone="no"?>
<svg width="130px" height="96px" viewBox="0 0 130 96" version="1.1" xmlns="http://www.w3.org/2000/svg" xmlns:xlink="http://www.w3.org/1999/xlink">
    <!-- Generator: Sketch 40.2 (33826) - http://www.bohemiancoding.com/sketch -->
    <title>Group</title>
    <desc>Created with Sketch.</desc>
    <defs></defs>
    <g id="Page-1" stroke="none" stroke-width="1" fill="none" fill-rule="evenodd">
        <g id="Group" fill="#4A5865">
            <path d="M44,76.5 C43.9,76.6 43.8,76.8 43.7,76.8 L44,76.5 Z M47.1,52.9 C47.4,52.9 47.7,52.6 47.7,52.3 C47.7,52 47.4,51.7 47.1,51.7 C46.8,51.7 46.5,52 46.5,52.3 C46.4,52.6 46.7,52.9 47.1,52.9 L47.1,52.9 Z M68.7,26.8 L75.6,26.8 L75.6,39 L68.7,39 L68.7,26.8 L68.7,26.8 Z M75.7,44.8 C75.6,46.1 75.1,47.2 74.2,47.8 L68.8,51.1 L68.8,39.6 L75.7,39.6 L75.7,44.8 L75.7,44.8 Z M61.7,26.8 L68.1,26.8 L68.1,39 L61.7,39 L61.7,26.8 L61.7,26.8 Z M68.1,51.5 L65.6,53 C65.4,53.1 65.2,53.2 64.9,53.2 C64.6,53.2 64.4,53.1 64.2,53 L61.7,51.5 L61.7,39.6 L68.1,39.6 L68.1,51.5 L68.1,51.5 Z M59.2,34.5 L61.2,34.5 L61.2,39 L59.2,39 L59.2,34.5 L59.2,34.5 Z M61.1,51.1 L55.7,47.8 C54.8,47.2 54.3,46.1 54.2,44.8 L54.2,39.6 L61.1,39.6 L61.1,51.1 L61.1,51.1 Z M54.2,26.8 L56.6,26.8 L56.6,31.5 L54.2,31.5 L54.2,26.8 L54.2,26.8 Z M57.2,28.6 L57.5,28.3 L57.3,28 L57.7,28 L57.9,27.6 L58.1,28 L58.5,28 L58.3,28.3 L58.6,28.6 L58.2,28.7 L58.2,29 L57.9,28.7 L57.6,29 L57.6,28.6 L57.2,28.6 L57.2,28.6 Z M58.9,33.5 C58.9,33.4 58.7,33.3 58.7,33.3 C58.5,33.3 58.4,33.7 58.2,33.7 C58.1,33.7 58,33.7 58,33.6 C58,33.5 58.3,33.4 58.4,33.3 C56.9,33.3 56.9,34 56.7,34 C56.3,34 57,33.3 57.2,33.1 C56.9,33.1 56.7,32.7 56.4,32.5 C56.6,32.3 56.6,32.4 56.8,32.5 C56.8,32.3 56.9,32.2 57.3,32.2 C58,32.2 57.8,32.8 57.9,32.8 C58,32.8 57.9,32.2 58.3,32.2 C59,32.2 59.8,33.9 59,33.9 C58.6,33.8 58.9,33.5 58.9,33.5 L58.9,33.5 Z M57.3,37.1 L57.7,37.1 L57.9,36.7 L58.1,37.1 L58.5,37.1 L58.3,37.4 L58.6,37.7 L58.2,37.8 L58.2,38.2 L57.9,37.9 L57.6,38.2 L57.6,37.8 L57.2,37.7 L57.5,37.4 L57.3,37.1 L57.3,37.1 Z M54.6,32.5 L55,32.5 L55.2,32.1 L55.4,32.5 L55.8,32.5 L55.6,32.8 L55.9,33.1 L55.5,33.2 L55.5,33.6 L55.2,33.3 L54.9,33.6 L54.9,33.2 L54.5,33.1 L54.8,32.8 L54.6,32.5 L54.6,32.5 Z M54.2,34.5 L56.6,34.5 L56.6,39 L54.2,39 L54.2,34.5 L54.2,34.5 Z M59.7,33.2 L60,32.9 L59.8,32.6 L60.2,32.6 L60.4,32.2 L60.6,32.6 L61,32.6 L60.8,32.9 L61.1,33.2 L60.7,33.3 L60.7,33.7 L60.4,33.4 L60.1,33.7 L60.1,33.3 L59.7,33.2 L59.7,33.2 Z M59.2,26.8 L61.2,26.8 L61.2,31.5 L59.2,31.5 L59.2,26.8 L59.2,26.8 Z M76.3,26.2 L53.6,26.2 L53.6,44.6 C53.6,46.4 54.4,47.9 55.4,48.4 L64.1,53.6 C64.3,53.8 64.6,54 64.9,54 C65.2,54 65.4,53.9 65.6,53.7 L74.5,48.4 C75.5,47.9 76.3,46.4 76.3,44.6 L76.3,26.2 L76.3,26.2 Z" id="Shape"></path>
            <path d="M60.8,43.8 C60.8,43.7 59.9,44.1 60.2,44.1 C60.2,43.9 60.7,43.4 60.9,43.2 C60.9,42.9 60.5,43.2 60.1,43.4 C61.4,41.5 60.6,42.3 59.8,42.4 C61,41.2 60.7,41.2 59.8,41.6 C60.5,41.1 60.6,40.4 60.5,40.3 C59.9,41.1 59.3,41 59.3,41.8 C59.3,42.3 59.1,43.2 58.9,43.4 C58.6,43.8 58.8,42 57.9,42 C57.6,42 56.9,42 56.7,42.3 C56.9,42.3 57.2,42.8 57.2,42.9 C57.2,43.1 57.4,43.6 57.1,43.6 C56.8,43.6 56.4,43 56.4,42.7 L56.4,42 C56.4,41.3 55.2,40.2 54.7,40.2 C54.7,40.7 55.4,40.8 55.4,41.5 C55.1,41.5 54.7,41 54.7,41.3 C54.7,41.6 55.1,41.7 55.1,42 C55.1,42.3 54.6,41.9 54.6,42.2 C54.6,42.5 54.9,42.4 54.9,42.7 C54.7,42.6 54.5,42.7 54.5,42.8 C54.5,42.9 54.6,43 54.7,43.1 C54.6,43.2 54.6,43.3 54.6,43.7 C54.6,45.1 55.5,45.8 56.2,45.8 C56.7,45.8 56.6,45.5 56.7,45.3 C56.7,45.5 57,45.2 57,45.6 C57,46 56.5,45.9 56.5,46.2 C56.5,46.7 57.2,46.2 57.2,46.8 C57.2,47.5 57.1,47.5 57.1,47.7 C57.1,47.9 57.9,47.4 57.8,47.4 C58,47.5 58,48 58.3,48 C58.5,48 58.6,47.4 58.7,47.4 C58.6,47.4 59.4,47.9 59.4,47.7 C59.4,47 59.1,47.3 59.1,46.8 C59.1,46.4 60,46.5 59.9,46.2 C59.8,46 59.7,46.1 59.6,45.8 C59.6,45.9 58.9,44.7 59.8,45.3 C60.7,46 60.8,43.9 60.8,43.8 M85,48.6 C85.4,48.6 85.7,48.3 85.7,47.9 C85.7,47.5 85.4,47.2 85,47.2 C84.6,47.2 84.3,47.5 84.3,47.9 C84.3,48.3 84.6,48.6 85,48.6 M82,50.4 C82.4,50.4 82.7,50.1 82.7,49.7 C82.7,49.3 82.4,49 82,49 C81.6,49 81.3,49.3 81.3,49.7 C81.2,50.1 81.6,50.4 82,50.4 M46,54.6 C46.4,54.6 46.7,54.3 46.7,53.9 C46.7,53.5 46.4,53.2 46,53.2 C45.6,53.2 45.3,53.5 45.3,53.9 C45.3,54.3 45.6,54.6 46,54.6 M48.4,54.8 C48.8,54.8 49.1,54.5 49.1,54.1 C49.1,53.7 48.8,53.4 48.4,53.4 C48,53.4 47.7,53.7 47.7,54.1 C47.7,54.5 48,54.8 48.4,54.8 M113.1,23.4 C114.2,24.7 114.4,26.8 113.7,28.4 C113.3,28.4 113.3,27.8 113.3,27.5 C112.5,26 111.9,24.1 112.6,22.5 C113,22.5 112.8,23.1 113.1,23.4 M18.1,25.2 C17.9,26.2 17.9,27.5 18.1,28.4 C17.9,28.6 17.9,28.2 17.7,28.2 C16.2,27.1 16.9,24.9 16.5,23.3 C16.6,23.2 16.8,23.1 16.9,23.2 C17.7,23.7 18,24.4 18.1,25.2 M116.5,25.3 C116.7,25.7 116.3,26.2 116,26.4 C115.6,26.5 115.2,26.3 115,26 C114.9,25.6 115.1,25.2 115.5,25 C115.9,24.9 116.3,25 116.5,25.3 M15.7,27.1 C15.6,27.5 15.5,27.8 15.2,28 C15,28 14.6,28 14.4,27.8 C14.2,27.6 14.1,27.2 14.2,27 C14.4,26.7 14.7,26.7 15,26.6 C15.3,26.7 15.6,26.8 15.7,27.1 M118,27.8 C118.1,28 118.1,28.2 118,28.4 C117.7,28.8 117.3,28.9 116.9,28.8 C116.6,28.6 116.5,28.4 116.5,28.1 C116.6,27.8 116.9,27.5 117.2,27.4 C117.6,27.4 117.8,27.6 118,27.8 M115.8,27.8 C116.1,28 115.9,28.4 115.8,28.6 C115.6,28.8 115.3,29.1 115,29 C114.8,28.8 114.6,28.8 114.5,28.5 C114.5,28.1 114.7,27.7 115.1,27.6 C115.3,27.5 115.5,27.7 115.8,27.8 M112.9,28.4 C112.9,28.8 112.9,29.4 112.4,29.5 C111.9,29.7 111.6,29.3 111.5,28.9 C111.5,28.5 111.7,28.1 112.1,27.9 C112.4,28 112.7,28.2 112.9,28.4 M20,28.6 C20.1,29 19.7,29.2 19.5,29.4 C19.2,29.5 18.9,29.2 18.7,29 C18.4,28.7 18.8,28.5 18.9,28.2 C19.3,27.9 19.9,28.2 20,28.6 M17.7,28.7 C17.7,29 17.5,29.3 17.3,29.5 C17,29.6 16.7,29.4 16.5,29.1 C16.3,28.7 16.5,28.3 16.9,28.2 C17.2,28.1 17.5,28.5 17.7,28.7 M103.3,28.9 C103.7,29.7 104,30.7 104.1,31.8 C103.9,32.6 104.2,33.6 103.7,34.1 C103.1,33.9 103.1,33.2 102.7,32.9 C102,31.5 102.6,29.9 102.9,28.5 C103.2,28.3 103.2,28.7 103.3,28.9 M15.8,29.4 C15.9,29.9 15.6,30.1 15.3,30.4 C14.8,30.5 14.5,30.2 14.3,29.8 C14.3,29.4 14.5,29 14.8,28.8 C15.2,28.8 15.6,29 15.8,29.4 M109.6,30.5 C110.1,31.7 110.2,33.1 109.8,34.3 L109.6,34.5 C109,33.4 108.3,32.4 108,31.3 C108,30.5 108.2,29.7 108.5,29 C108.8,28.8 108.9,29 109.1,29.3 C109,29.8 109.2,30.3 109.6,30.5 M114.6,29.8 C114.6,30.2 114.4,30.6 114,30.8 C113.6,30.9 113.2,30.8 113.1,30.3 C113,29.9 113.2,29.5 113.5,29.3 C113.9,29.1 114.4,29.5 114.6,29.8 M17.7,31.1 C17.7,31.4 17.4,31.8 17.1,31.9 C16.8,32.1 16.5,31.7 16.3,31.6 C16.2,31.3 16.1,31 16.3,30.7 C16.4,30.5 16.7,30.5 16.9,30.4 C17.3,30.5 17.6,30.7 17.7,31.1 M19.4,30.9 C19.6,31.3 19.1,31.5 19,31.7 C18.5,31.9 18.3,31.5 18.1,31.2 C18,30.8 18.3,30.6 18.5,30.3 C19,30.2 19.2,30.5 19.4,30.9 M115.7,30.7 C115.7,31.2 114.9,31.7 114.8,32.3 C114.4,33.4 113.4,34.2 112.3,34.5 C112.1,34.7 111.7,35 111.4,35 C111.3,34.2 112,33.5 112.5,32.8 C113.3,31.7 114.4,31.1 115.7,30.7 M16.9,32.4 C17.5,33.1 17.8,33.7 18.5,34.3 C18.5,34.5 18.4,34.7 18.2,34.7 C16.3,34.6 14.9,32.6 14,31.2 C14.1,30.8 14.6,31.1 14.9,31.1 C15.6,31.6 16.4,31.7 16.9,32.4 M116.2,33 C116.1,34.7 115.3,36.5 113.7,37.3 C113.3,37.5 112.8,37.9 112.4,37.6 C113.2,35.9 114.5,34.5 115.9,33 L116.2,33 M108.6,34.1 C108.7,34.7 108.4,35.1 107.9,35.3 C107.5,35.3 107.2,35 107,34.7 C107,34.3 107.2,33.9 107.6,33.8 C107.7,33.7 107.9,33.7 108.1,33.7 C108.3,33.7 108.4,33.9 108.6,34.1 M14.7,34.5 C15.5,35 16.1,35.7 16.8,36.4 C16.3,36.8 15.6,36.4 15.1,36.4 C13.8,35.9 12.8,34.8 11.5,34.4 C11.5,34 12.1,34.1 12.3,34 C13.2,33.9 13.9,34.3 14.7,34.5" id="Shape"></path>
            <path d="M57.2,22.7 C55,21.8 53.5,24.1 51.3,23.9 C51,24.1 51.1,24.3 50.9,24.5 C50.8,24.6 50.6,24.5 50.5,24.5 C50.4,23.5 50.1,22.7 49.9,21.7 C49.7,21.3 49.8,20.7 49.6,20.3 C48.3,16.8 52.7,19.5 53.6,17.4 C54.4,15.6 52.1,15.4 51.5,14.2 L51.5,13.7 C50.9,13.1 50.2,12.9 49.8,12 C50.1,11 50.2,9.9 49.9,8.9 C49.9,8.7 49.7,8.3 49.3,8.5 C48.5,9.5 48,10.4 47.3,11.4 C46.5,10.8 45.8,10.1 45,9.6 C44.4,9.5 43.8,8.9 43.2,9.2 C43.1,9.4 43.2,9.6 43.3,9.8 C43.3,11.4 44.1,12.6 45.2,13.7 L45.3,14.3 C44.6,15.9 44.8,17.8 44.6,19.6 C42.8,24.2 39.9,28.5 36,31.7 C33.7,34.3 31,36.7 30.7,40.2 C30.6,40.8 30.8,41.4 30.3,41.8 C29,41.3 27.7,40.7 26.6,39.8 C24.8,38.5 22.2,38.7 21,36.4 C20.5,35.5 21.1,34.6 21.6,33.9 C22.9,32.6 22.8,30.3 22,28.8 C21.8,28.8 21.8,29 21.7,29 C21.6,31.4 19.7,33 20.4,35.6 C20.6,36.4 21,36.8 21.2,37.6 C20.9,37.5 20.5,37.5 20.3,37.4 C19.4,37.3 18.6,36.9 17.6,37 C15.8,37.8 13.3,36.8 11.8,38.5 C11.6,38.5 11.2,38.6 11.3,38.9 C12.2,38.9 13,39.1 13.9,39.1 C15.3,39.3 16.2,38.2 17.2,37.7 L17.4,37.7 C17.8,37.3 18.5,37.5 19,37.5 C21.5,37.8 23.4,39 25.5,40.2 L25.5,40.4 C24.7,40.8 23.8,41 23,41.4 C22,42.1 21,43 20.7,44.1 C20.1,45.1 20.9,46 21.3,46.8 C21.3,47.2 21.4,47.7 21.7,47.8 C23,46.4 21.8,44.8 22,43.2 C22.3,42 23.4,41.4 24.6,41.1 C26.9,40.1 28.5,42 30.3,43 C30.3,44.8 30.5,46.6 30.1,48.4 C29.5,48.6 28.8,48.7 28.2,48.7 C25.1,48.9 22.6,50.7 19.8,51.6 C18.5,52 17,52 15.8,52.5 C16.8,52.8 17.8,52.4 18.9,52.4 C22.8,51.8 25.8,48.8 30,49.4 L30.1,49.5 C29.6,50.5 29,51.3 28.2,52.1 C28.1,51.7 28,51.3 27.6,51.1 C27.3,50.9 26.9,51.1 26.7,51.4 C26.6,51.6 26.6,51.8 26.7,52 C26.9,52.4 27.2,52.4 27.6,52.6 C27.5,53 27.1,53.1 26.8,53.4 C25.7,55.3 23.4,54.5 22.1,55.8 C21.9,56.1 21.2,56.2 21.5,56.7 C23,56.9 24.5,56.5 25.6,55.7 L30.1,50.9 C30.3,52.2 30,53.5 29.2,54.5 C28.8,54.3 28.6,54 28.1,53.9 C27.7,54 27.4,54.4 27.4,54.7 C27.6,55 27.7,55.3 28,55.5 C26.7,56.5 24.9,56.5 23.4,57 C20.5,57.4 17.7,57.6 14.8,57.6 C13.4,57.5 11.8,58 10.5,57.6 C9,57.9 7.4,57.4 6.1,58.2 C5.9,58.4 6.1,58.6 6.1,58.8 C7.9,60 10.4,59 12.5,59.4 L28.1,59.4 C29.3,59.4 30.4,59.3 31.3,58.8 C33.3,57.6 34.4,55.6 35.5,53.5 C35.9,52.8 36.2,51.9 36.3,51.1 C36.7,49.7 37.9,48.8 39.3,48.7 C39.5,50.8 39.1,52.9 38.6,54.8 C38.4,56.1 37.5,57.3 38,58.7 C38.1,59.3 38.8,59.3 39.3,59.4 C44.1,59.3 48.9,59.1 54,59.5 C54.9,59.7 55.7,59.9 56.7,59.9 C56.8,59.8 57.1,59.7 56.9,59.5 C56.8,59.1 56.5,58.5 55.9,58.4 C55.8,58.2 55.5,58.2 55.3,58.1 C52.8,56.7 49.7,57.4 46.7,57.5 C45.2,57.7 43.6,57.9 42.3,57.1 C41.7,56.4 42.1,54.1 42.1,54.1 C42.1,53.2 44.3,46.9 44.6,46.4 C44.7,45.8 44.9,45.2 44.8,44.6 C45.1,43.8 45,42.8 45,41.9 C45.2,40.6 45.8,39.4 46.2,38.2 C46.4,37.6 46.6,37 46.9,36.4 C47.1,35.6 47.2,34.9 47.7,34.3 C49,35.1 50.3,35.1 50.9,36.6 L51.4,39.9 C51.4,40.1 51.6,40.5 51.8,40.3 C52.8,39.6 52.5,38.1 52.5,37.1 C52.7,35.9 51.9,35.3 51.5,34.2 C51.2,34 50.8,33 50.8,33 C50.6,32.1 48.7,31.5 49.2,30.4 C49.4,29.5 49.7,28.6 50.5,28.1 C50.6,28.2 50.7,28.3 50.7,28.4 L51.2,28.1 L51.2,24.8 C52.5,24.8 54.4,25 55.7,25 C56.1,25.1 56.3,25.4 56.7,25.4 L57,25 L60.2,24.4 C59.3,24.2 58.5,22.7 57.2,22.7" id="Shape"></path>
            <path d="M60.7,24.1 C60.8,24.1 60.9,24.1 61,24 L60.7,24.1" id="Shape"></path>
            <path d="M26.1,35.2 C26.1,35.7 25.9,36 25.5,36.1 C25.2,36 25,36 24.8,35.6 C24.6,35.2 25,34.8 25.4,34.7 C25.7,34.8 26.1,34.8 26.1,35.2 M23.6,35.2 C23.8,35.4 23.9,35.8 23.8,36.1 C23.5,36.3 23.1,36.5 22.8,36.2 C22.6,36 22.3,35.7 22.5,35.4 C22.8,35.1 23.2,34.9 23.6,35.2" id="Shape"></path>
            <path d="M78.8,35.6 C78.8,35.7 78.8,35.7 78.8,35.6" id="Shape"></path>
            <path d="M109,36.3 C109.2,36.7 108.8,37.1 108.5,37.2 C108.1,37.1 107.6,37 107.6,36.5 C107.6,36.2 107.9,36 108.2,35.9 C108.5,35.8 108.8,36.1 109,36.3 M111.1,36.2 C111.2,36.4 111.5,36.7 111.2,36.9 C111,37 110.9,37.1 110.8,37.2 C110.4,37.3 110,37.1 109.8,36.7 C109.7,36.3 110.1,36.1 110.4,35.9 C110.7,35.9 110.9,36.1 111.1,36.2 M13.6,36.7 C13.4,37.2 13,37.4 12.5,37.2 C12.4,37.1 12.3,36.9 12.2,36.7 C12.2,36.4 12.3,36.1 12.6,36 C13.1,36.1 13.5,36.3 13.6,36.7 M27,37.4 C27,37.7 26.6,38 26.3,38.2 C25.9,38.2 25.6,37.9 25.4,37.6 C25.4,37.3 25.6,36.9 25.9,36.8 C26.3,36.6 26.8,37 27,37.4 M24.6,37.1 C24.7,37.2 24.8,37.5 24.7,37.7 C24.5,37.9 24.1,38.3 23.7,38 C23.5,37.8 23.2,37.6 23.3,37.2 C23.5,37 23.7,36.8 23.9,36.7 C24.2,36.8 24.4,37 24.6,37.1 M117.2,37.6 C117.2,37.9 116.9,38.2 116.7,38.4 C116.4,38.5 116,38.4 115.8,38.2 C115.6,38.1 115.6,37.8 115.6,37.6 C115.8,37.3 116.1,37.2 116.4,37.1 C116.7,37.1 117,37.4 117.2,37.6 M119.7,38 C119.6,38.4 119.3,38.7 118.9,38.7 C118.7,38.7 118.2,38.6 118.3,38.2 C118.3,37.9 118.5,37.6 118.7,37.6 C119.1,37.4 119.6,37.6 119.7,38 M18.1,38.5 C18.2,39 18,39.3 17.6,39.5 C17.3,39.7 17,39.5 16.8,39.3 C16.6,39.1 16.4,38.8 16.6,38.5 C16.7,38.1 17,38.2 17.3,38.1 C17.7,38.1 17.9,38.2 18.1,38.5 M20.1,38.9 C20.2,39.2 19.9,39.3 19.8,39.6 C19.6,39.7 19.3,39.8 19.1,39.7 C18.8,39.5 18.5,39.1 18.8,38.7 C19,38.1 19.9,38.4 20.1,38.9 M114.8,38.7 C114.8,39.1 114.5,39.4 114.2,39.6 C113.8,39.7 113.5,39.4 113.4,39.1 C113.4,38.8 113.6,38.5 113.8,38.3 C114.3,38.3 114.6,38.4 114.8,38.7 M118.1,39.3 C118,39.7 118.1,40.1 117.7,40.3 C117.4,40.4 117,40.3 116.7,40.1 C116.5,39.9 116.4,39.5 116.5,39.3 C116.7,39 117.1,38.7 117.5,38.8 C117.8,39 117.8,39.2 118.1,39.3 M16.6,40.2 C16.8,40.5 16.4,40.6 16.3,40.8 C16,41 15.7,40.8 15.5,40.7 C15.2,40.5 15.3,40.1 15.4,39.9 C15.7,39.2 16.5,39.7 16.6,40.2 M115.6,40.9 C115.8,40.9 115.7,41.2 115.6,41.3 C114.6,41.8 113.2,41.9 112.4,41.1 C111.9,40.7 111.3,40.5 110.8,40.2 C111,39.7 111.7,39.7 112.2,39.6 C113.4,39.8 114.3,40.9 115.6,40.9 M18.5,40.6 C18.6,40.9 18.3,41 18.3,41.3 C18.1,41.5 17.8,41.5 17.6,41.4 C17.2,41.2 17.1,40.7 17.3,40.4 C17.8,39.9 18.3,40.1 18.5,40.6 M22,40.8 C22.2,41.2 21.9,41.5 21.6,41.7 C21.3,41.9 21.1,41.6 20.8,41.6 C20.6,41.3 20.2,41 20.6,40.7 C21,40 21.7,40.4 22,40.8 M67.9,42.5 C67.8,43.3 66.5,42.4 66.7,43.4 C66.9,44.2 67,45.1 67.5,45.6 C67.9,46.1 67.7,47 67.7,47.6 C67.4,48.2 66.8,48.6 66.2,48.9 C65.1,48.8 63.4,49.5 62.9,48.1 C62.7,47.5 62.3,46.9 62.3,46.2 C62.4,46.1 62.6,46.1 62.7,46 C62.7,45.7 62.4,45.6 62.4,45.3 C63.7,45.1 61.9,43.9 63,43.9 C63.9,44.8 65.4,44.5 66.2,45.6 C66.4,45.8 66.5,46 66.8,46.1 C66.6,45.2 66.2,44.2 66,43.2 C65.9,42.7 66.1,42.2 66.5,41.9 C66.9,41.3 67.5,42.1 67.9,42.5 M25.5,42.2 C25.6,42.6 25.3,42.8 25.1,43 C24.7,43.2 24.5,42.8 24.4,42.6 C24.3,42.2 24.6,42 24.8,41.8 C25,41.8 25.3,42 25.5,42.2 M50,42.6 C50.5,44.2 50.3,45.8 49.5,47.1 C49.5,47.4 49.6,47.9 49.1,47.9 C48,46.4 48.8,44.3 49.3,42.8 C49.4,42.4 49.9,42.2 50,42.6 M83.9,43.4 C84.5,44.5 84.5,46 84,47.1 L83.7,47.4 C83.3,46.5 82.9,45.6 82.8,44.6 C83,43.9 83.2,43.2 83.3,42.5 C83.8,42.4 83.8,43.1 83.9,43.4 M28.6,43.8 C28.4,44.3 27.7,44.4 27.3,44.7 C26.4,45.4 25,45.6 23.8,45.4 C24.8,44 26.4,43.1 28.3,43.5 C28.3,43.7 28.5,43.6 28.6,43.8 M12.3,45.3 C13.8,46.3 14.2,47.8 15,49.2 C15.1,49.4 15.5,49.4 15.4,49.7 C15.1,49.9 14.8,49.5 14.3,49.5 C12.8,48.8 11.8,47.1 11.9,45.4 C11.9,45.3 12.1,45.3 12.3,45.3 M82.4,46.5 C82.4,46.9 82.4,47.3 82,47.4 C81.6,47.5 81.2,47.3 81.1,46.9 C81,46.6 81.2,46.5 81.3,46.3 C81.6,46 82.2,46.2 82.4,46.5" id="Shape"></path>
            <path d="M99.1,48.6 C99.1,47.8 99.3,47.1 99.4,46.4 C99.5,46.2 99.6,45.9 99.6,45.6 C100.6,44.3 102.5,44.7 104,44.8 C104.6,45.1 105.3,45.1 106,45.2 C106.3,45 106.7,45 107,45 C108.3,44.3 107.4,42.8 107.5,41.7 L107,40.5 C106.9,40.3 106.8,40 106.7,39.7 C106.5,39.4 106.3,38.9 106.1,38.6 C105.4,36.8 104.1,35.8 103,34.4 C101,31.8 97.8,30.3 94.6,29.2 C91.5,28.1 88.3,29.5 85.5,30.5 C84.6,30.3 84.2,29.6 84,28.8 C83.8,27.3 84.2,25.8 84.8,24.6 C84.9,23.6 85.6,22.8 85.9,21.9 C86.6,19.7 87.4,17.5 87.5,15 C87.6,13.5 86.5,12.5 85.4,11.8 C84.6,11.6 83.8,11.6 83.2,12.2 C82.7,13.3 81.6,14 80.6,14.5 C80.5,15.2 81.4,14.7 81.6,15 C82.5,15.2 83.5,14.9 84.2,15.4 C84.3,17 83.4,18.3 82.5,19.5 C81.2,21.5 79.7,23.5 78.9,25.7 L78.7,25.5 L78.9,35.3 C80.2,37.4 81.7,39.8 84.1,40.6 C85.4,41.6 87,42.9 88.7,42 C89.6,41.7 89.7,43 90.1,43.5 C90.6,45 89.5,46 89.4,47.4 L88.4,49.6 C87.2,51.9 86.1,54.4 84.3,56.4 C83.7,56.4 83.3,57 82.8,57.1 C82.5,57.5 81.8,57.2 81.5,57.4 C80.3,57.9 78.5,57.6 77.7,58.8 C77.8,58.9 77.9,59 78,59 C80.4,59 83.1,59.2 85.7,59.1 C86,59 86.3,58.7 86.3,58.3 C85.9,57.6 86.4,57 86.7,56.5 C86.9,55.5 87.5,54.9 87.8,54 C88.6,52.4 89.6,50.8 90.5,49.1 L91.7,47.1 C92,46.4 92.5,45.6 92.9,44.9 C93.2,44.6 93.4,44.2 93.6,43.8 C93.6,43.4 93.4,43.2 93.2,43 C93.5,42.7 93.9,42.8 94.3,42.7 C95.3,43.3 96.3,44.3 96.5,45.3 L96.9,46.3 L97.1,46.8 L97,48.1 L97.2,49.3 C97.4,51.2 97,53.2 96.8,55.1 C96.1,57.4 93.5,57.2 91.6,57.7 C91.1,58 90.2,57.9 90.2,58.7 C92.5,59.2 95.2,58.9 97.7,58.9 C98.1,58.7 98.2,58.4 98.4,58 C98.5,57.5 99,57 98.8,56.5 C98.4,55.9 98.8,55.1 98.6,54.3 C98.7,54.1 98.7,53.8 98.6,53.5 C98.9,52.3 98.8,50.9 99.1,49.8 L99.1,48.6 M118.6,47.1 C117.3,48.9 116,50.9 113.8,51.6 C113.6,51.6 113.5,51.7 113.4,51.5 C114.7,50.1 115.5,47.8 117.6,47.3 C117.9,47.1 118.3,46.9 118.6,47.1 M10.4,49 C10.2,49.2 10.4,49.5 10,49.6 C9.7,49.8 9.3,49.6 9.2,49.2 C9,48.8 9.4,48.4 9.7,48.3 C10,48.5 10.3,48.6 10.4,49 M21.8,49.6 C21.9,50 21.5,50 21.3,50 C19.6,50.6 17.9,50 16.7,48.8 C16.7,48.6 16.7,48.5 16.9,48.4 C18.5,48.9 20.4,48.6 21.8,49.6 M12.5,49.1 C12.6,49.3 12.6,49.5 12.6,49.7 C12.4,50.1 12,50.1 11.6,50.1 C11.4,50 11.2,49.8 11.1,49.6 C11.1,49.2 11.5,49 11.8,48.8 C12.1,48.8 12.3,48.9 12.5,49.1 M49.7,49.3 C49.8,49.7 49.5,49.9 49.2,50.1 C48.8,50.2 48.5,50 48.4,49.8 C48.3,49.5 48.4,49.1 48.7,49 C49,48.9 49.6,48.9 49.7,49.3 M120.1,49.4 C120.2,49.8 119.9,50 119.6,50.2 C119.4,50.3 119.1,50.2 118.8,50.1 C118.8,49.9 118.5,49.7 118.6,49.5 C118.8,49.1 119.1,49 119.5,49 C119.8,49.2 119.9,49.2 120.1,49.4 M122.8,49.3 C123,49.7 122.8,49.9 122.6,50.2 C122.4,50.5 122.1,50.6 121.9,50.4 C121.7,50.2 121.3,50 121.3,49.7 C121.3,49.4 121.7,49.1 121.9,49 C122.3,48.9 122.4,49.3 122.8,49.3 M8.7,50.4 C8.7,50.7 8.5,50.8 8.4,51.1 C8.2,51.2 8,51.3 7.8,51.3 C7.5,51.2 7.3,50.9 7.2,50.7 C7.3,50.3 7.5,50 7.9,49.9 C8.2,49.9 8.6,50.1 8.7,50.4" id="Shape"></path>
            <path d="M92.2,50.4 C92.3,50.6 92.2,50.8 92.2,50.9 C92,51.2 91.6,51.5 91.2,51.3 C91,51.1 90.7,50.8 90.8,50.5 C91.2,50.1 91.9,49.9 92.2,50.4 M15.1,51 C15,51.3 14.9,51.6 14.5,51.6 C14.1,51.6 14,51.3 13.8,51.2 C13.8,50.8 13.8,50.5 14.1,50.3 C14.6,50.1 15.1,50.5 15.1,51 M11.3,51.1 C11.4,51.5 11.1,51.8 10.9,52 C10.4,52.2 10,51.8 9.8,51.4 C9.8,51 10.1,50.6 10.5,50.5 C10.9,50.5 11.1,50.9 11.3,51.1 M94.8,51 C94.9,51.4 94.8,51.8 94.4,52 C93.9,52.2 93.5,51.8 93.3,51.4 C93.5,51.1 93.5,50.6 94,50.6 C94.4,50.6 94.6,50.7 94.8,51 M13.1,51.2 C13.2,51.5 13,51.6 12.9,51.8 C12.7,51.8 12.6,52 12.3,52 C12.1,51.8 11.8,51.7 11.8,51.4 C11.8,51 12,50.8 12.3,50.6 C12.8,50.6 13,50.9 13.1,51.2 M118,51.5 C117.9,51.8 117.6,52 117.3,52.1 C117,52.2 116.8,51.9 116.5,51.8 C116.3,51.6 116.4,51.3 116.5,51.1 C116.9,50.4 118,50.7 118,51.5 M121,51.7 C120.9,52.1 120.4,52.3 120,52.4 C119.6,52.2 119.2,52 119.5,51.5 C119.7,51.3 119.7,51.2 120,51.1 C120.5,50.9 120.9,51.3 121,51.7 M102.1,51.9 C102.3,52.4 101.8,52.6 101.5,52.8 C101.2,52.8 101,52.6 100.7,52.5 C100.6,52.1 100.8,51.7 101.3,51.5 C101.7,51.5 101.9,51.7 102.1,51.9 M91.2,52.4 C91.4,52.5 91.3,52.8 91.3,52.9 C91.1,53.1 90.7,53.5 90.4,53.2 C90.1,53 89.9,52.8 90,52.4 C90.2,52 91,52 91.2,52.4 M93.5,52.7 C93.5,53 93.5,53.2 93.2,53.3 C92.9,53.6 92.6,53.3 92.3,53.2 C92.2,53 92.1,52.8 92.3,52.6 C92.4,52.4 92.6,52.3 92.8,52.3 C93,52.4 93.3,52.4 93.5,52.7 M26.1,52.7 C26.3,52.9 26.1,53.2 26,53.5 C25.8,53.7 25.4,53.9 25,53.7 C24.6,53.5 24.6,53 24.7,52.7 C24.9,52.6 24.9,52.3 25.3,52.3 C25.7,52.4 25.9,52.5 26.1,52.7 M106.4,52.9 C106.5,53.3 106.1,53.5 105.8,53.5 C105.3,53.7 105.1,53.3 104.9,53 C104.9,52.8 105.1,52.6 105.2,52.4 C105.7,52.2 106.1,52.6 106.4,52.9 M104.2,52.9 C104.4,53.3 103.9,53.5 103.8,53.7 C103.5,53.8 103.2,53.8 102.9,53.5 C102.7,53.4 102.7,53.1 102.7,52.9 C102.9,52.7 103.1,52.5 103.3,52.4 C103.7,52.4 104.1,52.6 104.2,52.9 M122.1,53.4 C122.2,54 121.5,53.7 121.2,53.8 C119.5,54.8 117.4,54 115.8,53.4 C115.9,52.9 116.5,53.1 116.8,52.9 C118.5,51.8 120.2,53.1 122,53.2 L122.1,53.4 M13.6,52.9 L13.4,53.2 C11.9,54.1 10,54.7 8.3,54.1 L8.1,53.9 C9.6,52.8 11.5,52.5 13.4,52.8 L13.6,52.9 M110.4,53.2 C110.4,53.5 110.2,53.8 110,54 C109.6,54.1 109.1,54 109,53.6 C108.9,53.3 109.2,53 109.5,52.8 C109.8,52.7 110.3,52.8 110.4,53.2 M20.7,53.3 C20.5,53.6 20.6,53.9 20.2,54.1 C19.8,54.3 19.3,53.9 19.2,53.6 C19.1,53.2 19.4,53 19.6,52.8 C20.1,52.6 20.4,53 20.7,53.3 M17.8,53.5 C17.9,53.8 17.7,53.9 17.6,54.1 C17.4,54.3 17,54.3 16.8,54.2 C16.5,54 16.2,53.7 16.4,53.2 C16.6,53 16.8,52.9 17,52.8 C17.4,53 17.8,53.1 17.8,53.5 M113.2,54.5 C113.2,54.9 112.9,55.1 112.6,55.2 C112.3,55.2 112,55 111.8,54.8 C111.7,54.6 111.7,54.2 112,54 C112.1,53.9 112.4,53.9 112.5,53.8 C112.8,53.9 113.1,54.1 113.2,54.5 M14.9,54 C15,54.3 14.7,54.4 14.7,54.7 C14.6,55.4 14.1,55.8 13.8,56.4 C13,57.3 12,57.3 10.9,57.6 L10.7,57.3 C11.9,55.8 13.1,54.7 14.7,53.9 L14.9,54 M111.2,54.9 C111.3,55.4 110.9,55.5 110.6,55.7 C110.2,55.7 110,55.5 109.8,55.2 C109.7,54.8 110.1,54.6 110.3,54.4 C110.7,54.3 111.1,54.6 111.2,54.9 M19.5,54.9 C19.5,55 19.5,55.1 19.6,55.1 C19.6,55.5 19.2,55.7 19,55.9 C18.6,55.9 18.4,55.8 18.1,55.5 C17.9,55.1 18.1,54.7 18.5,54.6 C18.9,54.5 19.4,54.5 19.5,54.9 M118.5,56.1 C118.9,56.1 119,55.6 119.4,55.5 C119.8,55.4 120.2,55.7 120.4,55.9 C120.6,56.4 120.2,56.6 119.9,56.8 C119.6,57 119,56.6 119.1,57.1 C119.4,57.3 119.6,57.6 119.7,57.9 C119.6,58.1 119.3,58 119.2,57.9 C118,57.4 116.8,56.6 116.3,55.4 C116.1,55 115.4,54.8 115.8,54.4 C116.9,54.5 117.9,55.4 118.5,56.1 M122.3,54.9 C122.5,55.1 122.4,55.5 122.3,55.7 C122.1,56.1 121.5,55.9 121.2,55.9 C121,55.7 120.8,55.5 120.9,55.2 C121.1,55 121.2,54.8 121.5,54.7 C121.8,54.5 122,54.7 122.3,54.9 M107.9,57 C108.3,57.4 108.6,58.1 108.8,58.6 C108.7,58.7 108.5,58.7 108.4,58.7 C107.1,57.9 105.3,57.1 104.8,55.5 C104.7,55.3 104.4,55.1 104.4,54.9 C105.4,54.7 106.4,55.5 107.1,56 C107.5,56.4 107.8,56.6 107.9,57 M17.3,55.5 C17.5,55.9 17.1,56.1 16.9,56.3 C16.5,56.4 16.2,56.2 16,56 C15.7,55.6 16.2,55.2 16.6,55 C16.9,55 17.1,55.3 17.3,55.5 M112.9,56.4 C112.9,56.6 112.6,56.8 112.5,57 C112.2,57 111.9,57.2 111.6,56.9 C111.5,56.7 111.3,56.4 111.6,56.2 C112,55.6 112.6,56 112.9,56.4 M122.8,57 C122.9,57.5 122.6,57.8 122.2,58 C121.8,58.1 121.5,57.8 121.2,57.6 C121,57.4 121.2,57.1 121.2,56.8 C121.5,56.6 121.8,56.4 122.2,56.5 C122.4,56.7 122.6,56.8 122.8,57 M95.3,62.5 C95.3,63 94.4,62.9 94.1,63.2 C92.9,63.8 91.4,63.8 89.9,63.8 L89.9,63.6 C91.3,62.4 93.4,61.9 95.3,62.5 M37.4,64.2 C37.4,64.6 37.2,64.8 36.8,64.9 C36.5,64.9 36.2,64.7 36.1,64.5 C35.9,64 36.3,63.8 36.6,63.6 C37,63.7 37.4,63.9 37.4,64.2 M94.6,64.6 C94.5,65 94.4,65.4 94,65.5 C93.6,65.6 93.4,65.4 93.1,65.2 C92.9,65 93,64.8 93,64.6 C93.3,63.9 94.4,63.9 94.6,64.6 M102.5,64.8 C101.5,65.4 100.4,66.2 99.1,66.2 L97,66.2 L96.8,66 C98.1,64.4 100.5,64.4 102.6,64.6 L102.6,64.8 M26.6,65.8 C26.6,66.2 26.4,66.4 26.1,66.6 C25.7,66.7 25.4,66.5 25.3,66.2 C25.1,65.8 25.3,65.5 25.6,65.3 C26,65 26.4,65.4 26.6,65.8 M28.6,66.2 C28.7,66.4 28.5,66.5 28.4,66.7 C28.2,66.8 27.8,66.9 27.6,66.7 C27.3,66.5 27.2,66.3 27.4,66 C27.5,65.8 27.8,65.8 27.9,65.6 C28.2,65.8 28.4,65.9 28.6,66.2 M13.4,70.2 C13,70.7 12.4,70.1 11.9,69.8 C10.5,69 10.6,67.4 9.2,66.5 C9.4,66 9.7,66.5 10,66.5 C10.2,66.7 10.6,66.8 10.8,66.9 C12.1,67.7 12.5,69 13.4,70.2" id="Shape"></path>
            <path d="M65.9,69.4 C65.7,69.9 65.4,70.3 65.5,70.8 L65.3,70.9 C65.4,70.3 64.8,69.9 65,69.3 C64.7,68.8 64.7,68.2 64.4,67.7 C64,67.1 64.7,66.8 65,66.3 C65.6,66.5 65.8,67.1 66.2,67.5 C66.4,68.3 65.9,68.8 65.9,69.4 L65.9,69.4 Z M129,54.7 C128.4,53.5 127.3,53.1 126,53.1 C125,53.2 124.2,53.9 123.8,54.7 C123.6,55.6 123.9,56.4 124.6,56.9 C124.9,57 125.2,57 125.4,56.7 C125.6,56.2 125,56.2 125,55.8 C124.8,55.2 125,54.8 125.4,54.4 C125.8,54 126.5,54.2 126.9,54.2 C127.4,54.5 127.9,54.8 128.1,55.4 C128.3,56.1 128.3,56.8 128.1,57.5 C127.7,58.5 126.7,59.3 125.6,59.5 C122.3,60 86.2,59.8 86.2,59.8 C82,60.2 77.1,59 73.5,61.2 C71.8,62 71,63.8 70.6,65.5 C69.5,66.5 68.4,67.6 67.5,68.7 L67.4,68.6 C67.6,67.6 68,66.8 68.2,65.8 C68.8,65 68.8,63.9 69.2,63 C70.7,60.6 72.1,58.1 74.5,56.4 C75.5,55.1 77.2,55.3 78.7,55.3 C80.3,56.1 82.2,56.3 84.2,56.1 C84.3,56 84.3,55.9 84.3,55.8 C83.7,55.3 82.8,55.1 82.2,54.6 C80.6,53.8 79.1,54.8 77.4,54.7 C77.3,54.6 77.2,54.6 77.3,54.5 C78.8,53.4 80.5,52.6 82.2,51.9 C83.6,51.1 85.1,50.7 86.5,50.2 C87.1,50.2 87.7,49.7 88.2,50 L90.3,49.4 C90.4,49.4 90.5,49.6 90.6,49.5 C92.4,48.9 94.6,49.5 96.7,49.4 L97,49.6 L98.9,50.1 C99.6,50.2 99.9,51 100.7,51.1 C101.1,50.5 100.3,50.3 100.1,49.9 C101,49.7 102,49.9 102.8,50.3 L102.4,50.7 C102.2,51.1 102.5,51.5 102.9,51.6 C103.2,51.7 103.4,51.5 103.6,51.4 C104.1,51 103.6,50.7 103.7,50.4 C106.6,50.9 109.5,51.6 112.1,52.8 C112.9,53 113.6,53.6 114.4,53.6 C113.6,52.8 112.4,52.4 111.4,52 C110.7,51.6 109.8,51.6 109.3,51 C109.4,50.8 109.7,50.9 109.8,50.7 C111.1,50.5 112.3,49.5 113.3,48.5 C113.4,48.3 113.8,48.3 113.8,48 C113.4,47.6 112.8,48.1 112.4,48.1 C110.7,48.4 110,50.4 108.4,50.7 C106.4,50.2 104.3,49.7 102.3,49.2 C101.3,49 100.2,49 99.3,48.6 L97.1,48.4 L93.1,48.4 C93.1,48.3 92.9,48.3 93,48.2 C94.4,47.8 95.7,47 97.1,46.6 L107.7,41.7 C108.8,40.7 109.8,39.6 110.7,38.4 C110.7,38.1 110.5,37.8 110.3,37.6 C110,37.5 109.7,37.5 109.5,37.8 C109,38.2 109.5,38.6 109.5,39 C109,39.6 108.3,40.2 107.7,40.6 C107.5,40.6 96.8,45.5 96.8,45.5 C95.2,46.2 93.6,46.9 92,47.3 L89.7,47.7 C89.5,48.2 89.1,48.5 88.7,48.6 C88.1,48.7 87.6,49.1 86.9,49.1 C81.7,51.1 76.4,53.2 72.3,57.3 C72.5,56.8 72.7,56.2 72.7,55.6 C72.6,55 72.7,54.3 72.3,53.8 C72.2,53.6 71.9,52.9 72,52.7 L71.4,53.1 C71,54 70.7,55.6 71.1,56.5 C71.2,57.2 71.8,58.1 71.3,58.7 C69.4,61 68.3,63.8 67.1,66.5 C66.6,66.4 66.4,66 66.2,65.5 C67.5,63.8 68.6,61.9 69,59.7 C69.3,59.5 69.1,59 69.4,58.7 C69.3,58.1 69.8,57.4 69.4,56.9 C69.7,56 68.2,55.2 69.1,54.7 L68.4,55.1 C66.7,57.3 69.3,60.7 67.3,62.9 L67.3,63.1 C66.7,63.8 66.5,64.5 65.7,65 C64.7,64.6 64.4,63.5 63.8,62.7 C62.9,61.9 62.9,60.1 63.4,59 C63.8,57.8 63.2,56.8 63,55.8 L62.6,55.6 C61.6,56.8 61.3,58.8 62,60.3 C62.4,61 62.4,62 63,62.6 C63.4,63.8 64.1,64.5 64.7,65.6 C64.9,66 64.5,66.1 64.3,66.3 C63.9,66 63.9,65.4 63.5,65.1 C62.2,62.3 60.5,60.1 58.4,57.8 C58.3,57.4 58,57.1 58.2,56.7 C59,56 59.1,54.6 58.7,53.7 C58.6,53.5 58.4,53.3 58.4,53.1 L57.8,52.6 C57.9,54 57,55.2 57.4,56.7 L57.4,56.8 C53.3,53.7 48.8,51 44.2,48.8 L43.8,49.8 C45,50.1 48,52 48,52 C49.4,52.5 50.7,53.4 52,54.1 C57.4,57.1 61,62.1 63.4,67.6 C63.4,68 63.8,68.5 63.6,69 C62.8,67.7 61.6,67 60.6,66 C60.3,64.1 59.2,62.3 57.6,61.6 C57,60.7 55.7,60.6 54.7,60.4 L40,60 C28.3,59.8 17.5,60.4 5.9,60.2 C4.3,60 2.3,59.5 1.8,57.8 C1.5,57.2 1.5,56.2 1.8,55.6 C2.2,54.8 3,54.6 3.8,54.5 C4.4,54.6 4.9,55.2 5.1,55.6 C5.1,56.1 4.7,56.6 4.5,57 C4.5,57.2 4.7,57.5 5,57.4 C5.5,57.2 5.9,56.6 6,56.1 C6,55.8 6.2,55.4 5.9,55.2 C5.7,54.4 4.8,53.8 4,53.6 C3,53.5 2,53.8 1.3,54.5 C0.3,55.3 0.4,56.7 0.7,57.9 C1.3,59.7 3.2,60.9 5,61.1 L43.6,61.3 C47.4,61.5 51.6,60.9 55.4,61.6 C56.8,62 58.3,63.1 58.6,64.6 C58.6,64.7 58.4,64.6 58.3,64.6 C55.2,62.6 51,61.8 47,62.3 C45.4,62.2 44,62.8 42.6,63.2 C41.8,63.4 41.1,63 40.7,62.6 C39.3,61.3 36.8,61.4 34.9,61.9 L34.9,62.2 C36.8,62 38,63.7 39.7,63.9 C40.1,64 40.4,63.5 40.8,63.9 C39,64.8 37.2,65.8 35.3,66.4 C34.7,66.3 34.4,65.7 33.9,65.4 C33.1,64.6 31.8,64.9 30.7,64.8 C30.3,64.9 30,64.6 29.8,64.8 C30.1,65.4 30.8,65.8 31.5,66.1 C32.5,66.5 33.6,66.1 34.6,66.7 C34.4,67 34,67.1 33.8,67.3 C31.9,68 30.4,69.7 28.3,69.6 C26.1,69.8 23.9,69.2 22.4,67.7 C21.8,66.1 20.1,65.3 18.4,65.4 C18.3,65.5 18.1,65.5 18.2,65.7 C19.1,66.2 19.7,67.3 20.6,67.9 C21.2,68.6 22.2,67.9 22.7,68.7 C23.5,69.2 24.4,69.7 25.3,69.8 C25.9,70.1 26.6,70.2 27.4,70.4 L27.1,70.6 C23.5,71.8 19.3,71.9 15.3,71.8 C14.1,71.8 13,71.4 11.8,71.4 C12,71.6 12.4,71.8 12.8,72 C12.5,72.2 12.1,72.3 11.7,72.3 C11.2,72.4 10.7,72.5 10.2,72.7 C9.6,72.7 9,72.9 8.5,73.1 C7.8,73.8 7,74.6 6.2,74.9 C6.2,75.1 6.2,75.3 6.4,75.3 C7.2,75 8.1,75.2 8.9,74.9 C10.2,74.8 11,73.3 12,72.7 C13.1,71.8 14.7,72 16,72.2 C16.8,72.4 15.9,72.7 16.2,73.2 C16.5,73.5 16.8,73.8 17.2,73.7 C17.3,73.6 17.4,73.5 17.5,73.5 C17.7,73.2 17.7,72.8 17.5,72.5 C18.1,72.1 18.8,72.5 19.4,72.3 C20.9,72.3 22.4,71.9 23.9,71.9 C24.1,71.9 24.4,71.6 24.7,71.9 C24.6,72.2 24.2,72.3 24.3,72.7 C24.4,73.1 24.8,73.2 25.1,73.3 C25.5,73.1 25.9,72.9 25.7,72.3 C25.6,72 25.3,72 25.1,71.9 C25.9,71.5 26.9,71.4 27.7,71 C28.3,70.9 28.9,70.7 29.4,70.4 C29.9,70.4 30.4,69.9 30.8,70.1 C30.6,70.8 30.3,71.4 30,72 C29.4,74.1 28.9,76.9 30,79 C30.1,79 30.2,79 30.2,78.9 C29.4,76.8 29.8,74.3 30.6,72.3 C31.2,68.9 34.6,67.9 37.1,66.6 L37.2,66.8 C36.5,68.6 35.5,70.2 35.7,72.4 C35.8,72.8 35.5,73.1 35.7,73.4 C36.4,73 36.8,72.2 37.2,71.6 C37.5,69.8 36.4,67.6 38.3,66.2 C41.6,64.9 44.6,63.2 48.4,63.2 C48.5,63.3 48.8,63.1 48.8,63.4 C48,64.3 46.9,65.1 46.5,66.2 C45.2,68 45.3,71 45.8,73.1 C46.2,74.3 45.1,75 44.6,76 C44.4,76.3 44.3,76.9 44.1,77.3 L44.9,77.4 C45.6,76.7 46.2,75.8 46.2,74.8 C46.3,75.2 46.6,75.5 47,75.6 C47.3,75.2 46.8,74.8 46.7,74.4 C47.3,74 47.6,74.8 48.1,75 C48.9,75.2 49.6,75.6 50.5,75.6 L50.8,75.3 C49.9,73.9 48.2,73.7 46.7,73.6 C45.9,72.3 45.9,70.6 46,69 C46.2,68.2 46.3,67.3 46.8,66.5 C47,65.9 47.6,65.4 47.9,65 C48.6,64.3 49.5,63.8 50.4,63.6 L50.5,63.6 L50.5,63.7 C49.4,64.5 49.3,65.7 48.7,66.7 C48,67.7 47.7,69.1 48.3,70.2 C48.5,70.7 48.4,71.5 49,71.9 C49.5,71.2 49.6,70.3 49.8,69.5 C49.7,68.2 48.9,66.9 49.6,65.7 C50,64.7 50.8,64.3 51.7,63.9 C53.9,63.7 55.8,64.8 57.7,65.7 C58.1,66 58.8,66.2 58.9,66.8 C58.9,67.9 58.3,69 57.4,69.5 C56.3,70.1 54.8,70.2 53.8,69.5 C53.2,68.9 53,67.9 53.2,67.1 C53.6,66.6 54.2,66.2 54.9,66.5 C55.3,66.7 55.7,67.1 56.2,66.9 C56.4,66.8 56.5,66.5 56.4,66.3 C56,66.1 55.8,65.5 55.2,65.4 C54.4,65.3 53.5,65.3 53,65.8 C52.2,66.5 51.8,67.6 52.1,68.6 C52.4,69.9 53.3,70.8 54.6,71.2 C56.4,71.6 58.3,71.1 59.5,69.5 C60,69 60.1,68.4 60.4,67.8 C62.3,69 63.7,71 64.5,73.1 C64.5,73.8 64.7,74.5 64.5,75.1 L65.9,75.2 C65.8,74.9 65.9,74.5 66,74.2 C66.5,71.6 68.1,69.4 70.1,67.6 C70.8,67.2 70.6,68.1 70.8,68.4 C71.4,69.9 72.8,71 74.3,71.4 C76,71.7 77.6,71.3 78.6,70 C79.1,69 79.8,67.6 78.9,66.6 C78.3,65.9 77.6,65.6 76.7,65.6 C75.7,65.6 75,66.3 74.5,67.1 C74.5,67.4 74.5,67.8 74.7,67.9 C74.9,67.9 75.2,67.9 75.3,67.7 C75.4,67.1 75.9,66.8 76.4,66.5 C76.8,66.3 77.3,66.5 77.7,66.7 C78.1,67.1 78.2,67.7 78.3,68.3 C78.2,69.1 77.7,69.9 77,70.2 C75.8,70.8 74.2,70.5 73.2,69.8 C72.7,69.3 72.4,68.7 72.1,68 C72,67.4 71.8,66.8 72.1,66.2 C73.8,65.2 75.7,64.4 77.8,64.2 C78.6,64.4 79.3,64.9 79.9,65.5 C81.7,67.4 79.5,70.1 80.8,72.1 C81.3,72 81.3,71.4 81.5,71 C82.1,69.6 81.3,68 81,66.6 C80.5,65.7 80.2,65 79.5,64.2 C79.7,64.1 79.8,64.1 80,64.1 C80.8,64.7 81.7,65.3 82.4,66.2 C83.5,68.1 84.1,70.3 83.9,72.8 C83.6,74 82.3,74.6 81.3,75 C80.9,75.3 80.4,75.8 80.2,76.3 C80.7,76.6 81.4,76.3 81.8,76.1 C82.6,75.8 83,74.9 83.5,74.4 C83.6,74.4 83.5,74.6 83.6,74.6 C83.6,75 83.4,75.6 83.8,75.8 C84,75.2 84,74.4 84.2,73.8 C84.7,74.4 84.8,75.1 85,75.8 C85.4,76.5 86,77.5 86.9,77.6 C87.1,77.2 86.9,76.9 86.8,76.6 C86.7,75.6 85.8,75.1 85.3,74.4 C83.9,72.5 84.5,69.5 83.5,67.3 C83.1,66.1 82.3,65.3 81.4,64.3 L81.6,64.1 C83.5,64.1 85.2,64.7 87,65.1 C89.2,66.2 92.4,65.9 93.4,68.8 C93.8,70.4 94.6,71.9 95.7,73.1 L95.8,73 C96,72.6 96,71.9 95.8,71.5 C95.6,69.5 93.8,69 92.9,67.3 L93,67.1 C94,67.4 94.9,67.6 95.9,68 C99.1,68.9 101.3,72 101.7,75.2 C101.7,77.8 101.2,79.9 100.2,82 C100.1,82.3 99.5,82.7 99.9,83 C100.3,82.7 100.4,82.2 100.7,81.8 C102,79.6 102.7,76.6 102,73.8 C102,73.3 101.4,72.9 101.6,72.4 C101.8,72.6 102,72.7 102.3,72.8 C102.5,72.6 102.9,72.6 103.1,72.4 C103.1,72.2 103.3,71.9 103.1,71.7 C102.9,71.3 102.3,71.3 101.9,71.4 C101.7,71.6 101.5,72 101.4,72.3 C101,71.6 100.6,70.7 100,70.2 L100.1,70.1 C101.9,70.7 103.5,71.6 105.3,72.1 C105.7,72.3 106.1,72.5 106.7,72.5 C108.2,73.1 110,73.3 111.6,73.7 C112.8,73.6 113.8,74.1 115,73.9 L115,73.8 C114.6,73.2 113.6,73.8 113.1,73.4 C110.4,73.1 107.7,72.4 105.3,71.4 C105.3,71.3 105.5,71.3 105.6,71.3 C106,71.1 106.3,70.7 106.2,70.3 C106,70 105.7,69.9 105.3,69.9 C105.1,70 104.7,70.3 104.7,70.6 C104.7,70.9 105,71.3 105.3,71.4 C105.2,71.5 105.1,71.4 104.9,71.4 C103.7,70.8 102.5,70.3 101.3,69.8 C100.9,69.7 100.5,69.4 100.1,69.3 C99.2,68.9 98.3,68.4 97.4,68.1 C94.9,66.8 92,66.1 89.3,65.1 C88.7,64.9 88.1,64.8 87.6,64.6 C86.6,64.3 85.6,64.1 84.6,63.8 C81.2,63 76.7,62.9 73.8,64.7 C73.3,64.5 73,65.3 72.8,64.8 C73.6,62.6 76.1,61.9 78.2,61.8 C94.1,61.6 109,61.5 124.7,61.3 C126.5,61.3 128.3,60.7 129.3,59 C129.4,57.4 129.5,55.8 129,54.7 L129,54.7 Z" id="Shape"></path>
            <path d="M109,66.9 C109,67 109.2,67.1 109.2,67.3 C107.8,68.5 105.9,68.9 103.9,69 C103.7,69 103.6,69.2 103.4,69.1 C103.3,69 103.2,68.9 103.3,68.8 C104.6,67.2 106.8,66.4 109,66.9 L109,66.9 Z M102.6,67.6 C102.8,68.2 102.4,68.5 102,68.7 C101.6,68.7 101.3,68.4 101.1,68.1 C101,67.8 101.3,67.6 101.4,67.4 C101.7,67 102.4,67 102.6,67.6 L102.6,67.6 Z M27.2,67.6 C27.3,67.9 27.2,68.2 27,68.4 C26.8,68.6 26.5,68.6 26.3,68.6 C26,68.6 25.9,68.2 25.8,68 C25.8,67.6 26,67.4 26.3,67.2 C26.6,67.3 26.9,67.3 27.2,67.6 L27.2,67.6 Z M20.1,70.2 L20.1,70.5 C19.1,70.7 18.2,70.5 17.5,69.9 C16.9,69.1 16.3,68.3 15.4,67.9 C15.4,67.8 15.2,67.6 15.4,67.5 C17.4,67.6 18.6,69.2 20.1,70.2 L20.1,70.2 Z M115,67.6 C114.1,69 113.3,70.6 111.7,71.2 C111.4,71.2 111.2,71.6 110.9,71.3 C111.5,69.8 112.9,68.1 114.4,67.5 C114.6,67.6 114.8,67.5 115,67.6 L115,67.6 Z M29.5,68.1 C29.5,68.5 29.2,68.6 28.9,68.9 C28.6,68.9 28.4,68.7 28.2,68.5 C28,68.1 28.4,67.9 28.6,67.7 C29,67.6 29.3,67.8 29.5,68.1 L29.5,68.1 Z M120,68.3 C119.6,68.8 119.8,69.6 119.4,70.1 C118.6,71 117.9,72.1 116.7,72.3 C116.5,71.9 117,71.5 117.2,71.1 C117.8,69.9 118.5,68.5 119.8,68 L120,68.3 L120,68.3 Z M7.8,68.7 C7.9,69 8,69.3 7.8,69.6 C7.6,69.8 7.2,69.9 6.9,69.8 C6.5,69.6 6.4,69.2 6.6,68.8 C6.8,68.4 7.5,68.2 7.8,68.7 L7.8,68.7 Z M5.5,69.2 C5.5,69.4 5.7,69.6 5.6,69.8 C5.5,70 5.3,70.2 5,70.3 C4.6,70.4 4.3,70.1 4.1,69.8 C4.1,69.4 4.2,69.1 4.5,69 C4.9,68.7 5.3,68.9 5.5,69.2 L5.5,69.2 Z M10.2,69.4 C10.3,69.7 10.4,70.3 9.9,70.4 C9.3,70.6 9,70.2 8.7,69.9 C8.7,69.5 8.9,69.3 9.2,69.1 C9.6,69 9.9,69.1 10.2,69.4 L10.2,69.4 Z M16.7,69.9 C16.7,70.2 16.7,70.6 16.4,70.7 C16.2,70.9 15.8,70.8 15.6,70.8 C15.5,70.6 15.1,70.4 15.3,70.1 C15.5,69.9 15.6,69.8 15.9,69.7 C16.2,69.7 16.5,69.6 16.7,69.9 L16.7,69.9 Z M123.8,70.2 C123.7,70.5 123.5,70.8 123.2,70.8 C122.8,70.8 122.5,70.7 122.3,70.4 C122.1,70 122.5,69.7 122.8,69.6 C123.2,69.6 123.7,69.8 123.8,70.2 L123.8,70.2 Z M116.5,70.4 C116.5,70.7 116.2,71 116,71.1 C115.4,71.3 115,70.9 114.8,70.5 C114.9,70.1 115.2,69.9 115.5,69.8 C116,69.7 116.3,70 116.5,70.4 L116.5,70.4 Z M121.5,70.3 C121.5,70.6 121.3,70.9 121.1,71 C120.8,71.1 120.4,71.1 120.1,70.8 C119.7,70.5 120,70.2 120.3,70 C120.7,69.8 121.3,69.8 121.5,70.3 L121.5,70.3 Z M6.7,71 C6.8,71.4 6.6,71.8 6.2,72 C5.8,72 5.4,71.8 5.3,71.4 C5.3,71 5.4,70.7 5.7,70.6 C6.2,70.5 6.5,70.7 6.7,71 L6.7,71 Z M114.6,71.4 C114.7,71.8 114.5,72.2 114,72.4 C113.7,72.5 113.5,72.3 113.2,72.1 C113,71.9 112.8,71.5 113.2,71.3 C113.5,70.8 114.3,71 114.6,71.4 L114.6,71.4 Z M28.1,71.9 C28.3,72.3 27.8,72.4 27.7,72.7 C27.5,72.8 27.2,72.8 27.1,72.7 C26.9,72.5 26.7,72.2 26.8,71.9 C27,71.7 27.1,71.6 27.3,71.5 C27.7,71.2 27.8,71.6 28.1,71.9 L28.1,71.9 Z M123.1,72.2 C123.2,72.5 122.9,72.6 122.9,72.8 C122.7,73 122.3,73 122,73 C121.6,72.8 121.6,72.5 121.6,72.1 C121.8,71.9 121.9,71.7 122.2,71.7 C122.5,71.6 123,71.8 123.1,72.2 L123.1,72.2 Z M120.6,72.3 C120.8,72.8 120.3,73 120,73.1 C119.8,73.1 119.6,73 119.6,73.3 C120.6,73.8 121.3,74.7 122.1,75.4 L122.1,75.7 C120.7,75.7 119.2,75.3 118.2,74.2 C117.9,74 117.4,74 117.1,73.7 C117.6,73.2 118.6,73.4 119.3,73.3 C119.8,72.7 118.7,72.3 119.4,71.9 C119.6,71.9 119.8,71.6 120.1,71.7 C120.3,71.8 120.5,72 120.6,72.3 L120.6,72.3 Z M104.4,72.3 C104.5,72.5 104.2,72.7 104.2,72.9 C104,73.1 103.6,73.2 103.3,73.1 C103.1,72.8 102.8,72.6 102.9,72.2 C103.2,71.6 104.3,71.7 104.4,72.3 L104.4,72.3 Z M15.7,73.7 C15.6,74.1 15.4,74.3 15,74.3 C14.7,74.3 14.4,74.1 14.3,73.8 C14.3,73.5 14.5,73.4 14.5,73.2 C15,72.9 15.7,73.1 15.7,73.7 L15.7,73.7 Z M18.9,73.2 C18.9,73.8 18.3,74.1 18.1,74.6 C17.5,75.9 16.4,77.1 14.9,77.2 C14.7,76.8 15.4,76.4 15.6,76 C16.2,74.6 17.5,73.9 18.7,73.1 L18.9,73.1 L18.9,73.2 Z M103.4,73.8 C103.4,74.2 103,74.6 102.7,74.7 C102.3,74.8 102.1,74.5 101.9,74.4 C101.6,74.1 101.8,73.8 101.9,73.4 C102.5,72.9 103.1,73.3 103.4,73.8 L103.4,73.8 Z M105.9,74 C105.9,74.4 105.6,74.8 105.2,74.9 C105.1,74.8 104.9,74.9 104.8,74.8 C104.5,74.6 104.3,74.4 104.3,74.1 C104.5,73.9 104.6,73.6 104.9,73.5 C105.2,73.5 105.8,73.6 105.9,74 L105.9,74 Z M25.1,74 C25.1,74.4 24.8,74.7 24.5,74.8 C24.1,74.8 23.9,74.6 23.7,74.3 C23.6,73.9 24,73.7 24.2,73.5 C24.7,73.4 24.8,73.8 25.1,74 L25.1,74 Z M27.8,74.2 C27.7,74.6 27.4,74.8 27,74.9 C26.7,74.8 26.4,74.7 26.3,74.4 C26.3,74 26.6,73.8 26.9,73.6 C27.3,73.6 27.7,73.7 27.8,74.2 L27.8,74.2 Z M114.4,77 C114.6,77.2 115,77.4 114.9,77.6 C114.3,77.9 113.8,77.2 113.2,77 C112.2,76 111.5,75 111.1,73.8 C111.5,73.4 111.9,73.9 112.2,74 C113.1,74.8 114,75.8 114.4,77 L114.4,77 Z M115.9,74.2 C116,74.5 116,74.8 115.8,75.1 C115.6,75.5 115,75.4 114.7,75.3 C114.5,75.1 114.1,74.7 114.4,74.4 C114.5,74.1 114.9,74 115.2,73.9 C115.4,73.8 115.6,74 115.9,74.2 L115.9,74.2 Z M31.5,75.2 C31.5,75.5 31.6,76 31.2,76.2 C30.8,76.3 30.4,76.2 30.2,75.7 C30,75.2 30.4,75.1 30.7,74.9 C31,74.8 31.2,75 31.5,75.2 L31.5,75.2 Z M105.8,77.8 C106.4,78.6 106.8,79.6 106.8,80.6 C106.7,80.9 107,81.2 106.8,81.4 L106.6,81.4 C104.8,80.1 104.4,78.3 103.7,76.5 C103.5,76.4 103.5,76.3 103.5,76.1 C103.9,75.7 104.2,76.5 104.6,76.6 L105.8,77.8 L105.8,77.8 Z M36.6,76.4 C36.6,76.5 36.6,76.5 36.6,76.4 C35.1,77.6 32.8,78.3 31,77.2 C31,77.1 31,76.9 31.2,76.8 C32.4,76.4 33.5,75.9 34.7,76 L36.6,76.4 L36.6,76.4 Z M27.6,76.6 C26.3,77.4 25,79.1 23.4,79.5 C23.1,79.6 22.9,80.1 22.5,79.8 C23.2,77.6 25.6,76.5 27.7,76.3 L27.7,76.6 L27.6,76.6 Z M103.4,78.4 C103.5,78.7 103.4,79.2 103.1,79.2 C102.9,79.4 102.5,79.4 102.3,79.2 C101.9,79 101.9,78.7 101.9,78.4 C102,78.1 102.3,78.1 102.5,78 C103,78.1 103.2,78.1 103.4,78.4 L103.4,78.4 Z M100.2,78.6 C100,79.2 99.3,79.5 98.8,79.6 C97.5,80.1 96.2,79.4 95,79.1 C95,78.8 95.4,78.9 95.6,78.7 C96.9,78.4 98.3,78.1 99.6,78.5 C99.8,78.5 100,78.5 100.2,78.6 L100.2,78.6 Z M27.6,79.8 C27.5,80 27.4,80.3 27.1,80.4 C26.8,80.5 26.5,80.4 26.3,80.2 C26.2,80 25.9,79.8 26.1,79.5 C26.2,79.2 26.5,79.1 26.7,79.1 C27.2,79.2 27.5,79.4 27.6,79.8 L27.6,79.8 Z M29.9,80.2 C29.8,80.4 29.7,80.8 29.3,81 C29,81.1 28.7,80.9 28.5,80.7 C28.4,80.5 28.3,80.2 28.4,79.9 C28.5,79.7 28.8,79.7 29,79.5 C29.4,79.4 29.7,79.8 29.9,80.2 L29.9,80.2 Z M102.7,80.5 C102.7,80.8 102.6,81 102.4,81.3 C102.2,81.6 101.8,81.6 101.5,81.5 C101.2,81.5 101.1,81.1 101,80.9 C100.8,80.6 101.2,80.4 101.3,80.1 C101.8,79.8 102.5,79.9 102.7,80.5 L102.7,80.5 Z M104.4,80.5 C104.4,80.7 104.6,80.9 104.5,81.1 C104.3,81.3 104.1,81.8 103.6,81.6 C103.4,81.7 103.2,81.4 103.1,81.3 C102.9,80.9 103.1,80.3 103.6,80.2 C104,80 104.2,80.3 104.4,80.5 L104.4,80.5 Z M28.5,81.6 C28.6,82 28.4,82.4 28.1,82.7 C27.7,82.8 27.1,82.8 26.9,82.3 C26.9,81.9 26.9,81.4 27.4,81.1 C27.8,81.1 28.3,81.1 28.5,81.6 L28.5,81.6 Z M30.7,81.5 C30.6,82.6 30.4,84 29.3,84.6 C28.7,84.7 28,85.3 27.4,84.9 L27.4,84.7 C28.2,83.5 29.7,82.6 30.7,81.5 L30.7,81.5 Z M96.5,82.4 C96.7,82.6 96.4,82.8 96.3,83 C96.1,83.3 95.6,83.2 95.3,83 C95,82.9 95,82.5 95.1,82.2 C95.2,82 95.4,81.8 95.6,81.8 C96,81.8 96.3,82.1 96.5,82.4 L96.5,82.4 Z M34.7,84.2 C35.3,85.1 34.9,86.4 35.3,87.4 C34.6,87.5 34.3,86.7 33.9,86.3 C33,85.1 33.1,83.5 32.7,82.1 C32.8,82 32.9,82 33,82 C33.6,82.4 34,83.2 34.5,83.7 C34.4,84 34.7,84 34.7,84.2 L34.7,84.2 Z M98.4,82.7 C98.4,83 98,83.1 97.8,83.3 C97.5,83.3 97.3,83.1 97,82.9 C96.9,82.5 97.2,82.4 97.4,82.2 C97.9,82.1 98.3,82.3 98.4,82.7 L98.4,82.7 Z M103.2,86.3 C103.2,86.4 103.2,86.7 103,86.6 L102.8,86.6 C101.6,85.6 100.5,84.4 100.7,82.8 L100.9,82.8 C101.9,83.6 103.1,84.6 103.2,86.3 L103.2,86.3 Z M100.2,85 C100.2,85.3 100,85.6 99.8,85.8 C99.4,85.9 98.7,85.9 98.6,85.3 C98.6,84.9 99,84.7 99.2,84.5 C99.7,84.3 100,84.6 100.2,85 L100.2,85 Z M97.6,85.8 C97,87.3 95.5,88 94.5,89.2 C94.3,89.1 94.4,88.8 94.4,88.6 C94.8,87.1 96,85.6 97.5,85 C98.1,85.1 97.5,85.5 97.6,85.8 L97.6,85.8 Z M100.6,87 C100.6,87.4 100.2,87.5 100,87.7 C99.7,87.7 99.4,87.6 99.1,87.3 C99.1,86.9 99.4,86.8 99.6,86.6 C100,86.5 100.4,86.7 100.6,87 L100.6,87 Z M71.1,14.8 L70.7,14.8 C69.6,14.8 70.5,16.2 71.1,16.2 C71.9,16.2 71.9,14.8 71.1,14.8 L71.1,14.8 Z M67.5,16.2 C68.7,16.2 67.6,14.8 66.9,14.8 L65.8,14.8 C64.7,14.8 65.7,16.2 66.4,16.2 L67.5,16.2 L67.5,16.2 Z M62.7,16.2 C63.8,16.2 62.8,14.8 62.1,14.8 L61,14.8 C59.9,14.8 60.9,16.2 61.6,16.2 L62.7,16.2 L62.7,16.2 Z M71,14.5 C71.5,14.5 72,14.9 72,15.5 C72,16 71.6,16.5 71,16.5 L59.2,16.5 C58.7,16.5 58.2,16.1 58.2,15.5 C58.2,15 58.6,14.5 59.2,14.5 L71,14.5 L71,14.5 Z M71.1,32.7 C71.1,33.2 71.8,32.9 72.3,32.9 C72.8,32.9 73.5,33.2 73.5,32.7 C73.5,32 72.8,32.2 72.3,32.2 C71.8,32.2 71.1,32 71.1,32.7 L71.1,32.7 Z M73.3,34 C73.8,34 73.8,33.3 73.8,32.7 C73.8,31.3 72.7,32.7 72.2,31.4 C71.8,32.5 70.7,31.5 70.7,32.6 C70.7,33.4 70.7,33.9 71.5,33.9 L73.3,33.9 L73.3,34 Z M70,28 L72.2,28.9 L74.4,28 L73.5,31.3 L75.3,30.9 L74.7,32.9 L75.3,34.8 L73.7,34.4 L74.4,38 L72.2,37.1 L70,38 L70.9,34.4 L69.1,34.9 L69.6,32.9 L69.1,31 L70.8,31.3 L70,28 L70,28 Z M64.7,32.9 L64.7,32.4 L64.4,32.4 L64.7,32.1 L64.5,31.7 L64.9,31.8 L65.1,31.3 L65.3,31.8 L65.7,31.7 L65.5,32.1 L65.8,32.4 L65.5,32.4 L65.5,32.9 L65.1,32.6 L64.7,32.9 L64.7,32.9 Z M63,35.1 L63,34.7 L62.6,34.6 L62.9,34.3 L62.7,34 L63.1,34 L63.4,33.6 L63.6,34 L64,34 L63.8,34.3 L64.1,34.6 L63.7,34.7 L63.7,35.1 L63.4,34.8 L63,35.1 L63,35.1 Z M66,34.8 L66,34.4 L65.6,34.3 L65.9,34 L65.7,33.7 L66.1,33.7 L66.3,33.3 L66.5,33.7 L66.9,33.7 L66.8,34 L67,34.3 L66.7,34.4 L66.7,34.8 L66.3,34.5 L66,34.8 L66,34.8 Z M66.3,36.5 L66.3,36.3 L66.1,36.2 L66.3,36 L66.2,35.8 L66.4,35.9 L66.5,35.6 L66.6,35.9 L66.9,35.8 L66.8,36 L66.9,36.2 L66.7,36.3 L66.7,36.5 L66.5,36.3 L66.3,36.5 L66.3,36.5 Z M63.6,38.4 L63.6,37.7 L62.9,37.6 L63.4,37 L63.1,36.5 L63.8,36.5 L64.2,35.8 L64.6,36.5 L65.2,36.5 L64.9,37 L65.4,37.6 L64.8,37.7 L64.8,38.4 L64.2,38 L63.6,38.4 L63.6,38.4 Z M65,0.7 L66.4,4.2 L69.9,3.1 L68.1,6.4 L71.1,8.5 L67.5,9.1 L67.7,12.8 L65,10.3 L62.2,12.8 L62.4,9.1 L58.8,8.5 L61.8,6.4 L60,3.1 L63.6,4.2 L65,0.7 L65,0.7 Z M52.2,77.8 C51.8,78 51.6,78.1 51.7,78.5 L52.2,80.6 C52.3,81 52.3,81.6 52.1,82 C51.8,82.5 51.1,82.7 50.7,82.9 C50.4,83 49.6,83.1 49,82.9 C48.6,82.7 48.3,82.5 48.2,81.8 L47.7,79.6 C47.6,79 47.4,79.1 46.9,79.1 L46.9,78.9 L49.6,78.3 L49.6,78.5 C49.1,78.6 48.8,78.7 49,79.3 L49.5,81.5 C49.6,81.9 49.8,82.8 50.9,82.5 C52.3,82.2 52.1,81.2 52,80.7 L51.5,78.7 C51.4,78.3 51.3,78.1 50.6,78.2 L50.6,78 L52.3,77.6 L52.2,77.8 L52.2,77.8 Z M56.1,78.2 C55.9,77.8 55.2,77.1 54.3,77.3 C53.9,77.4 53.5,77.7 53.6,78.1 C53.7,78.5 53.9,78.6 54.6,78.7 L55.9,78.9 C56.2,79 56.9,79.2 57,79.9 C57.1,80.5 56.8,81.4 55.3,81.7 C54.6,81.9 54.1,81.7 53.9,81.8 C53.7,81.8 53.7,82 53.7,82.1 L53.5,82.2 L53.1,80.6 L53.3,80.5 C53.6,81.1 54.2,81.8 55.2,81.6 C56.1,81.4 56,80.7 56,80.6 C55.9,80.2 55.5,80.1 54.9,80 L54.3,79.9 C52.8,79.7 52.7,79.1 52.6,78.8 C52.5,78.4 52.6,77.4 54.1,77.1 C54.7,77 55.2,77.1 55.4,77 C55.6,77 55.6,76.9 55.6,76.7 L55.8,76.6 L56.1,78 L56.1,78.2 L56.1,78.2 Z M61.3,80.8 L58.4,81.1 L58.4,80.9 C59,80.8 59.2,80.8 59.1,80.2 L58.8,76.6 C58.2,76.7 57.4,76.8 57.4,77.9 L57.2,77.9 L57.1,76.5 L61.9,76 L62,77.4 L61.8,77.4 C61.5,76.3 60.7,76.4 60.1,76.4 L60.4,80 C60.5,80.6 60.6,80.6 61.2,80.5 L61.3,80.8 L61.3,80.8 Z M64.6,78.4 C65.7,78.4 66.1,78.3 66.1,77.4 C66.1,76.7 65.8,76.4 65.1,76.4 C64.7,76.4 64.6,76.5 64.6,76.7 L64.6,78.4 L64.6,78.4 Z M68.1,80.8 L66.4,80.8 L64.8,78.6 L64.6,78.6 L64.6,79.9 C64.6,80.4 64.8,80.5 65.3,80.5 L65.3,80.7 L62.6,80.6 L62.6,80.4 C63.2,80.4 63.3,80.3 63.3,79.8 L63.4,76.8 C63.4,76.2 63.2,76.2 62.7,76.2 L62.7,76 L65.3,76.1 C65.9,76.1 67.6,76.2 67.6,77.3 C67.6,78.1 66.7,78.3 66.3,78.4 L67.9,80.4 C68,80.5 68.1,80.5 68.2,80.5 L68.1,80.8 L68.1,80.8 Z" id="Shape"></path>
            <path d="M71.1,79.6 L70.5,77.9 L69.5,79.4 L71.1,79.6 L71.1,79.6 Z M73.4,81.5 L70.8,81.2 L70.8,81 C71.3,81 71.4,81 71.5,80.8 C71.5,80.6 71.3,80.1 71.2,79.9 L69.4,79.7 C69.1,80.2 69,80.4 68.9,80.5 C68.9,80.8 69.3,80.8 69.5,80.9 L69.5,81.1 L67.9,80.9 L67.9,80.7 C68.3,80.7 68.5,80.5 68.8,80 L71,76.5 L71.2,76.5 L72.6,80.3 C72.9,81.1 73,81.3 73.4,81.3 L73.4,81.5 L73.4,81.5 Z M78.1,82.5 L73.5,81.7 L73.5,81.5 C74,81.5 74.2,81.6 74.3,81.2 L74.9,78 C75,77.6 74.7,77.5 74.3,77.4 L74.3,77.2 L77.1,77.7 L77.1,77.9 C76.5,77.8 76.3,77.8 76.2,78.4 L75.6,81.6 C75.5,81.9 75.7,82 76.2,82.1 C77.4,82.3 77.9,81.8 78.5,81.2 L78.7,81.2 L78.1,82.5 L78.1,82.5 Z" id="Shape"></path>
            <path d="M81.1,83.2 L78.3,82.6 L78.3,82.4 C78.7,82.5 79,82.5 79.1,82.1 L79.8,78.9 C79.9,78.5 79.5,78.4 79.2,78.3 L79.2,78.1 L82,78.7 L82,78.9 C81.6,78.8 81.2,78.8 81.2,79.2 L80.5,82.4 C80.4,82.8 80.7,82.9 81.2,83 L81.1,83.2 L81.1,83.2 Z M84.5,82 L83.9,80.3 L83,81.9 L84.5,82 L84.5,82 Z M86.8,83.9 L84.2,83.6 L84.2,83.4 C84.7,83.4 84.8,83.4 84.9,83.2 C84.9,83 84.7,82.5 84.6,82.3 L82.8,82.1 C82.5,82.6 82.4,82.8 82.4,82.9 C82.4,83.2 82.8,83.2 83,83.3 L83,83.5 L81.4,83.3 L81.4,83.1 C81.8,83.1 82,82.9 82.3,82.4 L84.5,78.9 L84.7,78.9 L86.1,82.6 C86.4,83.4 86.5,83.6 86.9,83.6 L86.8,83.9 L86.8,83.9 Z M64.7,29.4 C64.2,29.4 63.6,29.7 63.6,29.2 C63.6,28.4 64.1,28.6 64.6,28.6 C65.1,28.6 65.8,28.4 65.8,29.2 C65.8,29.7 65.1,29.4 64.7,29.4 L64.7,29.4 Z M66.1,29.1 C66.1,27.5 65.2,29 64.7,27.6 C64.3,28.8 63.2,27.8 63.2,29 C63.2,29.5 63.3,29.8 63.6,29.9 L63.6,30.4 C63.6,30.5 63.7,30.6 63.8,30.6 L65.5,30.6 C65.6,30.6 65.7,30.5 65.7,30.4 L65.7,29.9 C65.9,29.7 66.1,29.5 66.1,29.1 L66.1,29.1 Z M80.3,49.1 C80.7,49.1 81,48.8 81,48.4 C81,48 80.7,47.7 80.3,47.7 C79.9,47.7 79.6,48 79.6,48.4 C79.5,48.8 79.9,49.1 80.3,49.1 L80.3,49.1 Z M76.8,24.9 C76.8,24.9 76.4,25.5 76.4,25.6 C76.4,25.8 76.6,26 76.8,26 C77,26 77.2,25.8 77.2,25.6 C77.1,25.6 76.8,24.9 76.8,24.9 L76.8,24.9 Z M52.8,24.9 C52.8,24.9 52.5,25.5 52.5,25.6 C52.5,25.8 52.7,26 52.9,26 C53.1,26 53.3,25.8 53.3,25.6 C53.2,25.6 52.8,24.9 52.8,24.9 L52.8,24.9 Z M58.8,24.9 C58.8,24.9 58.5,25.5 58.5,25.6 C58.5,25.8 58.7,26 58.9,26 C59.1,26 59.3,25.8 59.3,25.6 C59.1,25.6 58.8,24.9 58.8,24.9 L58.8,24.9 Z M64.8,24.9 C64.8,24.9 64.4,25.5 64.4,25.6 C64.4,25.8 64.6,26 64.8,26 C65,26 65.2,25.8 65.2,25.6 C65.1,25.6 64.8,24.9 64.8,24.9 L64.8,24.9 Z M70.8,24.9 C70.8,24.9 70.5,25.5 70.5,25.6 C70.5,25.8 70.7,26 70.9,26 C71.1,26 71.3,25.8 71.3,25.6 C71.1,25.6 70.8,24.9 70.8,24.9 L70.8,24.9 Z M52.8,33.2 C52.8,33.2 53.1,33.8 53.1,33.9 C53.1,34.1 52.9,34.3 52.7,34.3 C52.5,34.3 52.3,34.1 52.3,33.9 C52.4,33.9 52.8,33.2 52.8,33.2 L52.8,33.2 Z M52.8,41.2 C52.8,41.2 53.1,41.8 53.1,41.9 C53.1,42.1 52.9,42.3 52.7,42.3 C52.5,42.3 52.3,42.1 52.3,41.9 C52.4,41.8 52.8,41.2 52.8,41.2 L52.8,41.2 Z M53.8,47.5 C53.8,47.5 54.2,48.1 54.2,48.2 C54.2,48.4 54,48.6 53.8,48.6 C53.6,48.6 53.4,48.4 53.4,48.2 L53.8,47.5 L53.8,47.5 Z M58.8,50.8 C58.8,50.8 59.1,51.4 59.1,51.5 C59.1,51.7 58.9,51.9 58.7,51.9 C58.5,51.9 58.3,51.7 58.3,51.5 C58.4,51.5 58.8,50.8 58.8,50.8 L58.8,50.8 Z M77.1,33.2 C77.1,33.2 76.8,33.8 76.8,33.9 C76.8,34.1 77,34.3 77.2,34.3 C77.4,34.3 77.6,34.1 77.6,33.9 C77.4,33.9 77.1,33.2 77.1,33.2 L77.1,33.2 Z M77.1,41.2 C77.1,41.2 76.8,41.8 76.8,41.9 C76.8,42.1 77,42.3 77.2,42.3 C77.4,42.3 77.6,42.1 77.6,41.9 C77.4,41.8 77.1,41.2 77.1,41.2 L77.1,41.2 Z M76.1,47.5 C76.1,47.5 75.7,48.1 75.7,48.2 C75.7,48.4 75.9,48.6 76.1,48.6 C76.3,48.6 76.5,48.4 76.5,48.2 L76.1,47.5 L76.1,47.5 Z M71.1,50.8 C71.1,50.8 70.7,51.4 70.7,51.5 C70.7,51.7 70.9,51.9 71.1,51.9 C71.3,51.9 71.5,51.7 71.5,51.5 C71.4,51.5 71.1,50.8 71.1,50.8 L71.1,50.8 Z M65,54.4 C65,54.4 64.7,55 64.7,55.1 C64.7,55.3 64.9,55.5 65.1,55.5 C65.3,55.5 65.5,55.3 65.5,55.1 C65.3,55.1 65,54.4 65,54.4 L65,54.4 Z M74.7,42.5 C74.8,42.6 75,42.7 75.2,42.6 L75.4,42 C75.4,42 75.1,41.7 75,41.7 C74.4,41.9 73.7,41.9 73.3,42.5 C73.3,42.9 73.6,43.3 73.9,43.5 C74.1,43.4 74.2,43.7 74.3,43.8 C74.3,44 74.2,44.1 74,44.1 C73.5,43.6 72.8,44.3 72.4,43.7 C72.5,43.1 72.9,42.5 72.4,42 C72.4,41.9 72.6,41.8 72.5,41.7 C72.3,41.2 71.7,41.6 71.4,41.6 C70.8,41.5 70.4,41.8 70,42.3 C70,42.5 70.1,42.7 70.3,42.9 C70.5,42.9 70.5,42.9 70.6,43.1 L70.2,43.3 C70.3,43.4 70.3,43.6 70.4,43.7 C70.1,43.8 69.9,43.4 69.8,43.2 C69.8,42.9 69.8,42.4 69.4,42.3 C69.3,42.3 69.1,42.4 69.1,42.4 C69,42.5 68.9,42.8 68.9,43 C68.9,43.3 69,43.7 69,43.7 C69,43.7 70.2,44.6 70.4,45.1 C70.1,45.8 70.1,46.7 69.3,47.1 C69.1,47.3 69.1,47.5 69.1,47.7 L69.3,47.9 C69.8,47.6 70.7,47.6 70.7,46.7 C70.9,46.4 71.1,46 71.4,45.7 C71.8,45.6 72.1,45.8 72.3,46.1 C72.2,46.7 71.8,47 71.3,47.2 C71.2,47.3 71.3,47.4 71.3,47.5 C71.5,47.8 71.9,47.7 72.1,47.6 C72.7,47.2 73,46.4 73.6,46.2 C73.7,46.6 72.8,46.7 73.4,47.1 C73.7,47 74.2,47.1 74.4,46.7 C74.1,46.1 75.3,45.8 74.6,45.2 C74.6,44.6 75.2,44.4 75.2,43.8 C75,43.2 74.3,43.2 74.1,42.6 C74.1,42.3 74.5,42.4 74.7,42.5 L74.7,42.5 Z M47.2,49.4 C47.6,49.4 47.9,49.1 47.9,48.7 C47.9,48.3 47.6,48 47.2,48 C46.8,48 46.5,48.3 46.5,48.7 C46.4,49.1 46.8,49.4 47.2,49.4 L47.2,49.4 Z M8.3,72.1 C8.7,72.1 9,71.8 9,71.4 C9,71 8.7,70.7 8.3,70.7 C7.9,70.7 7.6,71 7.6,71.4 C7.6,71.8 7.9,72.1 8.3,72.1 L8.3,72.1 Z M33.1,77.6 L33,77.5 C33,77.6 33,77.6 33.1,77.6 L32.9,77.6 L32.9,77.5 L33,77.5 L33.1,77.6 C33,77.5 33,77.5 33.1,77.6 L33.1,77.6 Z M33.2,77.5 C33.2,77.5 33.1,77.5 33.2,77.5 C33.1,77.5 33.1,77.5 33.2,77.5 C33.1,77.5 33.1,77.5 33.2,77.5 C33.2,77.6 33.2,77.6 33.2,77.5 C33.1,77.6 33.1,77.6 33.2,77.5 C33.1,77.6 33.1,77.6 33.2,77.5 L33.1,77.6 L33.2,77.5 C33.1,77.6 33.1,77.6 33.2,77.5 C33.1,77.6 33.1,77.6 33.2,77.5 C33.1,77.6 33.1,77.6 33.2,77.5 C33.1,77.5 33.1,77.5 33.2,77.5 C33.1,77.5 33.1,77.5 33.2,77.5 C33.1,77.5 33.1,77.5 33.2,77.5 L33.2,77.5 Z M33.4,77.5 L33.3,77.6 L33.3,77.5 L33.3,77.6 L33.3,77.5 L33.4,77.5 L33.4,77.6 L33.4,77.5 C33.3,77.5 33.3,77.5 33.4,77.5 C33.3,77.5 33.3,77.5 33.4,77.5 L33.4,77.5 Z" id="Shape"></path>
            <path d="M33.4,77.6 L33.4,77.6 C33.5,77.5 33.5,77.5 33.4,77.6 C33.5,77.5 33.5,77.5 33.4,77.6 C33.4,77.5 33.4,77.5 33.4,77.6 C33.4,77.5 33.4,77.5 33.5,77.5 C33.5,77.5 33.6,77.5 33.6,77.6 L33.4,77.6 L33.4,77.6 Z" id="Shape"></path>
            <path d="M33.6,77.5 C33.6,77.6 33.6,77.6 33.6,77.5 C33.5,77.6 33.5,77.6 33.6,77.5 C33.5,77.6 33.5,77.6 33.6,77.5 C33.6,77.6 33.6,77.6 33.6,77.5 C33.6,77.6 33.6,77.6 33.6,77.5 C33.6,77.6 33.6,77.5 33.6,77.5 L33.6,77.5 Z M78,45.4 C77.9,47 77.3,48.3 76.2,49.1 L65.8,55.7 L65.7,55.7 C65.5,55.9 65.2,56 64.9,56 C64.6,56 64.3,55.9 64.1,55.7 L53.7,49.1 C52.6,48.3 52.1,47 51.9,45.4 L51.9,24.7 L78,24.7 L78,45.4 L78,45.4 Z M78.7,24 L51.1,24 L51.1,45.1 C51.1,47.3 52,49.1 53.3,49.7 L63.9,56.5 C64.1,56.8 64.5,56.9 64.9,56.9 C65.2,56.9 65.5,56.8 65.8,56.6 L76.6,49.8 C77.9,49.2 78.8,47.3 78.8,45.2 L78.7,24 L78.7,24 Z" id="Shape"></path>
            <path d="M68.6,54.8 L68.9,54.6 C68.8,54.7 68.7,54.7 68.6,54.8 L68.6,54.8 Z M45.2,82.3 L44.2,80.8 L43.6,82.5 L45.2,82.3 L45.2,82.3 Z M47.8,83.7 L45.2,84 L45.2,83.8 C45.7,83.7 45.8,83.7 45.8,83.5 C45.8,83.3 45.5,82.8 45.3,82.6 L43.5,82.8 C43.3,83.3 43.2,83.6 43.2,83.7 C43.2,84 43.6,83.9 43.9,83.9 L43.9,84.1 L42.3,84.3 L42.3,84.1 C42.7,84 42.8,83.8 43,83.2 L44.4,79.3 L44.6,79.3 L46.8,82.6 C47.2,83.3 47.4,83.5 47.8,83.4 L47.8,83.7 L47.8,83.7 Z" id="Shape"></path>
            <path d="M92.5,75.3 C92.1,76 91.6,76.5 90.8,76.7 C90.8,75.7 91.7,75.1 91.4,74 C90.9,73.2 89.9,73 88.9,73.2 C88.5,73.4 88.7,73.8 88.6,74.2 L88.4,75.5 C87.6,75.5 87.6,74.8 87.3,74.2 C87.3,73.4 87.7,72.5 88.5,72.1 C89.1,71.8 90.2,71.8 90.8,72.2 C91.3,72.3 91.9,72.6 92.1,73 C92.8,73.6 92.7,74.6 92.5,75.3 L92.5,75.3 Z M89.3,75.7 C89.7,75.3 89.2,72.7 90.4,74.4 C90.4,74.7 90.4,75.2 90.1,75.4 C90,75.6 89.6,75.9 89.3,75.7 L89.3,75.7 Z M89.8,76.7 C89.8,77.3 89.2,77.2 88.9,77.4 L87.9,77.4 C87.7,77.1 87.8,76.6 87.8,76.3 C88.5,76.4 89.2,76.4 89.8,76.7 L89.8,76.7 Z M90.9,81.5 C90.6,81.9 90.9,82.5 90.5,82.9 C90.5,83.6 89.9,84 89.4,84.3 C84.7,85.3 80,83.7 75.5,82.9 C69.1,81.5 61.7,81.1 55.2,82.6 C52.1,83.2 49.2,83.9 46.2,84.7 C44.4,84.9 42.4,85.2 40.6,84.7 C39.2,84 39.8,82.2 39.3,80.9 C39.4,79.9 39,79.1 39,78.1 C38.9,77.8 38.8,77.4 38.8,77.1 C39.4,77.2 40,77.6 40.6,77.8 C43.9,78.4 46.9,77.4 50,76.8 C53,76.2 56,75.6 59.2,75.4 C62.8,75.4 66.4,75.2 69.8,75.8 C70.9,75.8 71.9,76.1 72.9,76.2 C75.1,76.5 77.2,77.1 79.4,77.2 C79.8,77.3 80.2,77.3 80.6,77.4 C84.2,78 88.2,79 91.6,77.4 C91.7,78.8 91.1,80.2 90.9,81.5 L90.9,81.5 Z M70.7,84.5 C70.9,85.1 71.3,85.6 71.1,86.3 C70.7,87.1 69.9,87.1 69.2,87.2 C68.8,87.2 68.6,87.1 68.3,86.9 C68.3,86.7 68.3,86.6 68.1,86.5 C68.2,86 67.2,85.5 67.9,85 C68.5,84.4 70,83 70.7,84.5 L70.7,84.5 Z M71.6,84.6 C72.1,84.7 72.1,85.2 72.2,85.6 C72.2,86.5 71.7,87.2 70.9,87.6 C70.5,87.8 69.8,87.9 69.4,87.8 C70.4,87.8 71.4,87.4 71.8,86.4 L71.6,84.6 L71.6,84.6 Z M72.6,89.9 C72.5,89.9 72.5,90 72.5,90.1 C71.3,90.1 70.6,89.5 69.7,88.9 L69.7,88.7 C70.8,88.7 71.7,89.4 72.6,89.9 L72.6,89.9 Z M71.2,93.6 C71.2,93.7 71,93.7 70.9,93.6 C69.7,92.1 69.2,90.5 68.4,88.8 L68.6,88.8 C69.5,90.4 70.2,92.1 71.2,93.6 L71.2,93.6 Z M69.2,92.7 L69,92.8 C68.8,92.6 68.9,92.2 68.9,92 C69.1,92.1 69.3,92.4 69.2,92.7 L69.2,92.7 Z M68.1,90.3 C68.1,90.7 68.5,90.9 68.3,91.2 C68.2,91 67.9,90.7 68.1,90.3 L68.1,90.3 Z M67.8,87.6 L67.9,87.7 L67.8,87.7 L67.8,87.6 L67.8,87.6 Z M65.5,93.5 C64.7,93.5 63.6,94 62.9,93.3 C62.9,93 62.6,92.8 62.6,92.5 C63.2,92.3 63.8,93 64.4,92.5 C65.3,92.5 66.3,92.4 67.2,92.6 C67.6,92.7 68.3,91.9 68.4,92.7 C68.1,94 66.5,93.1 65.5,93.5 L65.5,93.5 Z M63.8,88.7 L64,88.4 C63.7,89.4 63.2,90.4 62.7,91.3 C62.4,90.3 63.4,89.6 63.8,88.7 L63.8,88.7 Z M64.9,88 C65.4,87.4 65.9,88.3 66.1,88.8 C66.7,89.7 68.2,90.5 67.6,91.7 C66.8,92.4 65.7,91.7 64.8,92.3 C64.4,92.3 63.6,92.4 63.4,91.9 C63.9,90.5 64.3,89.1 64.9,88 L64.9,88 Z M64.8,86.5 L64.6,86.5 L64.8,86.3 C65,86.3 64.8,86.4 64.8,86.5 L64.8,86.5 Z M65.7,86.5 C65.9,86.3 66.1,85.9 66.3,85.9 C66.3,85.9 66.3,86 66.4,86 C66.2,86.3 66,86.5 65.7,86.5 L65.7,86.5 Z M66.2,87.1 C66.3,87 66.5,87 66.6,87.1 L66.2,87.1 L66.2,87.1 Z M67.3,88.4 C67.3,88.5 67.3,88.6 67.2,88.7 L66.3,88 C66.8,87.9 67.1,88.1 67.3,88.4 L67.3,88.4 Z M67.2,85.9 L67.2,86 L67.2,85.9 L67.2,85.9 Z M68.9,83.5 C68.4,83.7 68.1,84.2 67.6,84.3 C67.8,83.9 68.4,83.4 68.9,83.5 L68.9,83.5 Z M66.9,82.9 C66.8,82.5 67.3,82.8 67.4,82.7 L68.6,82.8 C68,82.7 67.2,84.2 66.9,82.9 L66.9,82.9 Z M64,84.1 C64.2,83.5 64.2,83.1 64.6,82.6 C65,82.6 65.4,82.6 65.7,82.8 C65.8,83.6 66.8,84.7 65.7,85.4 C65.3,85.6 64.8,85.9 64.4,85.6 C63.9,85 63.8,84.6 64,84.1 L64,84.1 Z M63.4,86.5 C63.4,86.3 63.5,86.1 63.5,85.9 C63.7,85.7 63.9,86.1 64,86.2 C63.9,86.5 63.7,86.6 63.4,86.5 L63.4,86.5 Z M63.3,84.3 L63.3,84.7 L63.3,84.3 L63.3,84.3 Z M62.9,83.5 C62.4,83.4 62.1,82.8 61.6,82.8 C62.1,82.6 62.6,82.7 63.1,82.8 C63.3,83 62.9,83.3 62.9,83.5 L62.9,83.5 Z M62.5,86.7 C62.6,86.2 62.9,85.5 63.1,85 C63.1,85.6 62.8,86.3 62.5,86.7 L62.5,86.7 Z M61.6,86.7 C60.9,86.6 60.3,86.4 59.7,86.2 C59.3,85.8 59.7,85.4 59.7,84.9 C60.3,84 61.8,83.6 62.6,84.4 C62.5,85.3 62.2,86.1 61.6,86.7 L61.6,86.7 Z M62,87.8 L62,88 L61.9,88 L62,87.8 C62,87.8 61.9,87.8 62,87.8 L62,87.8 Z M61,90.1 C60.4,91.4 59.8,92.6 59.1,93.9 C59,94.1 58.7,94.1 58.5,94.2 C58.5,93.6 59.1,93.2 59.3,92.7 C60.1,91.6 60.4,90.5 61.3,89.4 C61.4,89.7 61,89.8 61,90.1 L61,90.1 Z M57.2,89.7 C58.2,89.3 59.1,88.5 60.2,88.8 C59.5,89.5 58.2,89.7 57.2,89.7 L57.2,89.7 Z M58.6,87 C58.4,85.6 59,84.4 59.9,83.4 C60.5,83.3 61.1,83.2 61.6,83.5 C60.6,83.8 59.3,84 59,85.3 C59,85.8 58.9,86.1 59.1,86.5 C59.5,87.3 60.5,86.9 61.1,87.5 C61.1,87.7 60.9,87.9 60.7,88 C60.1,87.7 59.3,87.5 58.6,87 L58.6,87 Z M40,74.2 C40.1,73.9 40,73.4 40.4,73.3 C40.7,73.2 41.1,73.2 41.2,73.5 C41.2,74 41.1,74.5 41,74.9 C40.5,75 40.2,74.6 40,74.2 L40,74.2 Z M40.1,75.5 C40.7,75.9 41.5,75.7 42.2,75.9 C42.3,76.3 42.3,76.9 42,77.3 C41.3,77.1 40.5,77.2 40.1,76.6 C40.3,76.2 40.1,75.8 40.1,75.5 L40.1,75.5 Z M38.3,74.4 C38.4,73.7 38.6,72.9 39.3,72.4 C40.3,71.9 41.6,72 42.4,72.5 C42.7,72.7 42.9,72.9 43,73.3 C43.2,74 42.9,74.7 42.4,75.1 L42,75.1 C42,74.5 42,73.8 42.2,73.3 C42.2,72.8 41.8,72.8 41.4,72.6 C40.7,72.4 40.1,72.7 39.6,73 C39.2,73.5 38.8,74.1 39.1,74.8 C39.4,75.2 39.1,75.8 39.3,76.3 L39.2,76.5 C38.8,75.8 38.2,75.3 38.3,74.4 L38.3,74.4 Z M75.5,91.3 C76.4,91.7 78.4,92.1 79.7,92.3 C79.6,92.8 78.6,92.3 78.7,93.1 C77.5,92.6 76,92.4 75.1,91.4 C75.3,91.4 75.3,91.3 75.5,91.3 L75.5,91.3 Z M50.7,92 L50.1,91.5 C50.4,91.1 51,91.3 51.4,91.1 C52.4,90.8 53.6,90.4 54.8,90.6 C53.7,91.5 52.1,91.7 50.7,92 L50.7,92 Z M93.6,73.8 C93.1,72.6 92.1,71.7 90.9,71.3 C89.6,71 88.3,71.2 87.4,72.2 C86,73.4 87,75.3 87,76.8 C87,77.1 87,77.4 86.7,77.5 C80.9,77 75.6,75.5 69.9,74.9 C68.6,74.7 67.3,74.7 66,74.5 L64.4,74.3 C59.4,74.5 54.5,74.7 49.8,75.9 C48.8,76.2 47.7,76.3 46.7,76.7 C46,76.6 45.4,77.1 44.7,76.9 L43.4,77.2 L43,77.2 C42.4,75.6 44.3,74.6 43.7,73 C43.2,72.1 42.2,71.2 41,71.4 C39.7,71.2 38.5,72 37.8,73 C36.9,75 38,77.1 38.4,79 C38.3,79.6 39,80.4 38.4,80.9 C37.2,80 35.5,79.6 34,80 C33.5,80.2 32.7,79.9 32.4,80.5 C34.1,81.4 36.3,81.3 38.2,81.2 C38.4,81.1 38.6,81.1 38.8,81.2 C39,82.2 38.6,83.6 39.2,84.6 C39.9,85.6 41.1,85.8 42.3,85.9 C46,85.8 49.2,84.7 52.5,83.9 C53,83.9 53.4,83.6 54,83.6 C55.8,83.2 57.7,82.9 59.6,82.8 C58.8,83.9 58.3,85.1 57.9,86.4 C57.4,87.5 58.7,87.6 59.1,88.2 C57.9,88.6 57,89.4 55.8,89.9 C53.3,89.8 51.1,90.8 48.7,91.1 C48.7,91.6 49.5,91.5 49.6,92 C49.5,92.4 49.1,92.4 48.8,92.6 C48.8,92.8 48.8,92.9 49,92.9 C49.2,92.6 49.8,92.8 50,92.5 C50.8,92.5 51.5,92.3 52.2,92.2 C52.9,91.9 53.6,91.9 54.2,91.4 C55,91.2 55.5,90.6 56.4,90.4 C57.6,90.4 58.7,90 59.8,89.9 L59.8,90.1 C58.9,91.6 57.9,93.1 57,94.5 C56.8,94.8 57,95.1 57.3,95.1 C57.9,95.3 58.4,95.1 58.8,94.9 C59.6,93.5 60.4,92.1 61.1,90.6 C61.4,89.2 62.4,88.5 63.4,87.6 C63.6,87.5 63.8,87.3 64,87.5 C63.2,88.4 62.7,89.3 62.1,90.3 C61.8,91.4 61.7,92.9 62.7,93.8 C63.2,94.2 63.9,94.1 64.5,94.1 C66,93.3 68,94.6 69.2,93.1 C69.9,93 70,93.8 70.4,94.2 C71.1,94.4 71.8,95.1 72.5,94.6 C72.5,94.2 72,93.8 71.7,93.4 C71.2,92.6 70.6,91.9 70.2,91.1 C70,90.5 69.6,90.2 69.6,89.6 C70.3,89.8 70.9,90.3 71.7,90.4 C72.4,90.7 73.2,90.6 73.8,91 C74.3,91.7 75.1,92.1 75.8,92.5 C76.8,93 77.9,93.1 78.9,93.5 C79.3,93.5 79.9,93.9 80.2,93.5 C80,93.3 79.8,93.2 79.6,93.1 C79.5,92.6 80.3,92.9 80.6,92.5 C80.5,92.3 80.3,92.2 80.1,92.2 C79.5,91.9 78.1,91.8 77.7,91.6 C77.2,91.5 76.8,91.3 76.3,91.2 C73.9,91.2 72.6,89 70.7,88.2 C71.1,87.8 71.8,87.5 72.1,86.9 C72.5,86.3 72.6,85.4 72.2,84.8 C71.8,83.6 70.3,83.7 69.3,83 L69.4,82.9 C70.9,82.8 72.3,83.2 73.7,83.5 C77.5,84 81,85.5 85,85.5 C87.2,85.5 89.9,85.6 91,83.5 C91.2,82.3 91.4,81 91.6,79.8 C92.5,77.8 93.8,76 93.6,73.8 L93.6,73.8 Z" id="Shape"></path>
        </g>
    </g>
</svg>