<svg width="130" height="96" viewBox="0 0 130 96" xmlns="http://www.w3.org/2000/svg"><title>Group</title><g fill="#4A5865" fill-rule="evenodd"><path d="M44 76.5c-.1.1-.2.3-.3.3l.3-.3zm3.1-23.6c.3 0 .6-.3.6-.6s-.3-.6-.6-.6-.6.3-.6.6c-.1.3.2.6.6.6zm21.6-26.1h6.9V39h-6.9V26.8zm7 18c-.1 1.3-.6 2.4-1.5 3l-5.4 3.3V39.6h6.9v5.2zm-14-18h6.4V39h-6.4V26.8zm6.4 24.7L65.6 53c-.2.1-.4.2-.7.2-.3 0-.5-.1-.7-.2l-2.5-1.5V39.6h6.4v11.9zm-8.9-17h2V39h-2v-4.5zm1.9 16.6l-5.4-3.3c-.9-.6-1.4-1.7-1.5-3v-5.2h6.9v11.5zm-6.9-24.3h2.4v4.7h-2.4v-4.7zm3 1.8l.3-.3-.2-.3h.4l.2-.4.2.4h.4l-.2.3.3.3-.4.1v.3l-.3-.3-.3.3v-.4h-.4zm1.7 4.9c0-.1-.2-.2-.2-.2-.2 0-.3.4-.5.4-.1 0-.2 0-.2-.1s.3-.2.4-.3c-1.5 0-1.5.7-1.7.7-.4 0 .3-.7.5-.9-.3 0-.5-.4-.8-.6.2-.2.2-.1.4 0 0-.2.1-.3.5-.3.7 0 .5.6.6.6.1 0 0-.6.4-.6.7 0 1.5 1.7.7 1.7-.4-.1-.1-.4-.1-.4zm-1.6 3.6h.4l.2-.4.2.4h.4l-.2.3.3.3-.4.1v.4l-.3-.3-.3.3v-.4l-.4-.1.3-.3-.2-.3zm-2.7-4.6h.4l.2-.4.2.4h.4l-.2.3.3.3-.4.1v.4l-.3-.3-.3.3v-.4l-.4-.1.3-.3-.2-.3zm-.4 2h2.4V39h-2.4v-4.5zm5.5-1.3l.3-.3-.2-.3h.4l.2-.4.2.4h.4l-.2.3.3.3-.4.1v.4l-.3-.3-.3.3v-.4l-.4-.1zm-.5-6.4h2v4.7h-2v-4.7zm17.1-.6H53.6v18.4c0 1.8.8 3.3 1.8 3.8l8.7 5.2c.2.2.5.4.8.4.3 0 .5-.1.7-.3l8.9-5.3c1-.5 1.8-2 1.8-3.8V26.2z"/><path d="M60.8 43.8c0-.1-.9.3-.6.3 0-.2.5-.7.7-.9 0-.3-.4 0-.8.2 1.3-1.9.5-1.1-.3-1 1.2-1.2.9-1.2 0-.8.7-.5.8-1.2.7-1.3-.6.8-1.2.7-1.2 1.5 0 .5-.2 1.4-.4 1.6-.3.4-.1-1.4-1-1.4-.3 0-1 0-1.2.3.2 0 .5.5.5.6 0 .2.2.7-.1.7-.3 0-.7-.6-.7-.9V42c0-.7-1.2-1.8-1.7-1.8 0 .5.7.6.7 1.3-.3 0-.7-.5-.7-.2s.4.4.4.7c0 .3-.5-.1-.5.2 0 .3.3.2.3.5-.2-.1-.4 0-.4.1s.1.2.2.3c-.1.1-.1.2-.1.6 0 1.4.9 2.1 1.6 2.1.5 0 .4-.3.5-.5 0 .2.3-.1.3.3s-.5.3-.5.6c0 .5.7 0 .7.6 0 .7-.1.7-.1.9 0 .2.8-.3.7-.3.2.1.2.6.5.6.2 0 .3-.6.4-.6-.1 0 .7.5.7.3 0-.7-.3-.4-.3-.9 0-.4.9-.3.8-.6-.1-.2-.2-.1-.3-.4 0 .1-.7-1.1.2-.5.9.7 1-1.4 1-1.5M85 48.6c.4 0 .7-.3.7-.7 0-.4-.3-.7-.7-.7-.4 0-.7.3-.7.7 0 .4.3.7.7.7m-3 1.8c.4 0 .7-.3.7-.7 0-.4-.3-.7-.7-.7-.4 0-.7.3-.7.7-.1.4.3.7.7.7m-36 4.2c.4 0 .7-.3.7-.7 0-.4-.3-.7-.7-.7-.4 0-.7.3-.7.7 0 .4.3.7.7.7m2.4.2c.4 0 .7-.3.7-.7 0-.4-.3-.7-.7-.7-.4 0-.7.3-.7.7 0 .4.3.7.7.7m64.7-31.4c1.1 1.3 1.3 3.4.6 5-.4 0-.4-.6-.4-.9-.8-1.5-1.4-3.4-.7-5 .4 0 .2.6.5.9m-95 1.8c-.2 1-.2 2.3 0 3.2-.2.2-.2-.2-.4-.2-1.5-1.1-.8-3.3-1.2-4.9.1-.1.3-.2.4-.1.8.5 1.1 1.2 1.2 2m98.4.1c.2.4-.2.9-.5 1.1-.4.1-.8-.1-1-.4-.1-.4.1-.8.5-1 .4-.1.8 0 1 .3M15.7 27.1c-.1.4-.2.7-.5.9-.2 0-.6 0-.8-.2-.2-.2-.3-.6-.2-.8.2-.3.5-.3.8-.4.3.1.6.2.7.5m102.3.7c.1.2.1.4 0 .6-.3.4-.7.5-1.1.4-.3-.2-.4-.4-.4-.7.1-.3.4-.6.7-.7.4 0 .6.2.8.4m-2.2 0c.3.2.1.6 0 .8-.2.2-.5.5-.8.4-.2-.2-.4-.2-.5-.5 0-.4.2-.8.6-.9.2-.1.4.1.7.2m-2.9.6c0 .4 0 1-.5 1.1-.5.2-.8-.2-.9-.6 0-.4.2-.8.6-1 .3.1.6.3.8.5m-92.9.2c.1.4-.3.6-.5.8-.3.1-.6-.2-.8-.4-.3-.3.1-.5.2-.8.4-.3 1 0 1.1.4m-2.3.1c0 .3-.2.6-.4.8-.3.1-.6-.1-.8-.4-.2-.4 0-.8.4-.9.3-.1.6.3.8.5m85.6.2c.4.8.7 1.8.8 2.9-.2.8.1 1.8-.4 2.3-.6-.2-.6-.9-1-1.2-.7-1.4-.1-3 .2-4.4.3-.2.3.2.4.4m-87.5.5c.1.5-.2.7-.5 1-.5.1-.8-.2-1-.6 0-.4.2-.8.5-1 .4 0 .8.2 1 .6m93.8 1.1c.5 1.2.6 2.6.2 3.8l-.2.2c-.6-1.1-1.3-2.1-1.6-3.2 0-.8.2-1.6.5-2.3.3-.2.4 0 .6.3-.1.5.1 1 .5 1.2m5-.7c0 .4-.2.8-.6 1-.4.1-.8 0-.9-.5-.1-.4.1-.8.4-1 .4-.2.9.2 1.1.5m-96.9 1.3c0 .3-.3.7-.6.8-.3.2-.6-.2-.8-.3-.1-.3-.2-.6 0-.9.1-.2.4-.2.6-.3.4.1.7.3.8.7m1.7-.2c.2.4-.3.6-.4.8-.5.2-.7-.2-.9-.5-.1-.4.2-.6.4-.9.5-.1.7.2.9.6m96.3-.2c0 .5-.8 1-.9 1.6-.4 1.1-1.4 1.9-2.5 2.2-.2.2-.6.5-.9.5-.1-.8.6-1.5 1.1-2.2.8-1.1 1.9-1.7 3.2-2.1m-98.8 1.7c.6.7.9 1.3 1.6 1.9 0 .2-.1.4-.3.4-1.9-.1-3.3-2.1-4.2-3.5.1-.4.6-.1.9-.1.7.5 1.5.6 2 1.3m99.3.6c-.1 1.7-.9 3.5-2.5 4.3-.4.2-.9.6-1.3.3.8-1.7 2.1-3.1 3.5-4.6h.3m-7.6 1.1c.1.6-.2 1-.7 1.2-.4 0-.7-.3-.9-.6 0-.4.2-.8.6-.9.1-.1.3-.1.5-.1s.3.2.5.4m-93.9.4c.8.5 1.4 1.2 2.1 1.9-.5.4-1.2 0-1.7 0-1.3-.5-2.3-1.6-3.6-2 0-.4.6-.3.8-.4.9-.1 1.6.3 2.4.5"/><path d="M57.2 22.7c-2.2-.9-3.7 1.4-5.9 1.2-.3.2-.2.4-.4.6-.1.1-.3 0-.4 0-.1-1-.4-1.8-.6-2.8-.2-.4-.1-1-.3-1.4-1.3-3.5 3.1-.8 4-2.9.8-1.8-1.5-2-2.1-3.2v-.5c-.6-.6-1.3-.8-1.7-1.7.3-1 .4-2.1.1-3.1 0-.2-.2-.6-.6-.4-.8 1-1.3 1.9-2 2.9-.8-.6-1.5-1.3-2.3-1.8-.6-.1-1.2-.7-1.8-.4-.1.2 0 .4.1.6 0 1.6.8 2.8 1.9 3.9l.1.6c-.7 1.6-.5 3.5-.7 5.3-1.8 4.6-4.7 8.9-8.6 12.1-2.3 2.6-5 5-5.3 8.5-.1.6.1 1.2-.4 1.6-1.3-.5-2.6-1.1-3.7-2-1.8-1.3-4.4-1.1-5.6-3.4-.5-.9.1-1.8.6-2.5 1.3-1.3 1.2-3.6.4-5.1-.2 0-.2.2-.3.2-.1 2.4-2 4-1.3 6.6.2.8.6 1.2.8 2-.3-.1-.7-.1-.9-.2-.9-.1-1.7-.5-2.7-.4-1.8.8-4.3-.2-5.8 1.5-.2 0-.6.1-.5.4.9 0 1.7.2 2.6.2 1.4.2 2.3-.9 3.3-1.4h.2c.4-.4 1.1-.2 1.6-.2 2.5.3 4.4 1.5 6.5 2.7v.2c-.8.4-1.7.6-2.5 1-1 .7-2 1.6-2.3 2.7-.6 1 .2 1.9.6 2.7 0 .4.1.9.4 1 1.3-1.4.1-3 .3-4.6.3-1.2 1.4-1.8 2.6-2.1 2.3-1 3.9.9 5.7 1.9 0 1.8.2 3.6-.2 5.4-.6.2-1.3.3-1.9.3-3.1.2-5.6 2-8.4 2.9-1.3.4-2.8.4-4 .9 1 .3 2-.1 3.1-.1 3.9-.6 6.9-3.6 11.1-3l.1.1c-.5 1-1.1 1.8-1.9 2.6-.1-.4-.2-.8-.6-1-.3-.2-.7 0-.9.3-.1.2-.1.4 0 .6.2.4.5.4.9.6-.1.4-.5.5-.8.8-1.1 1.9-3.4 1.1-4.7 2.4-.2.3-.9.4-.6.9 1.5.2 3-.2 4.1-1l4.5-4.8c.2 1.3-.1 2.6-.9 3.6-.4-.2-.6-.5-1.1-.6-.4.1-.7.5-.7.8.2.3.3.6.6.8-1.3 1-3.1 1-4.6 1.5-2.9.4-5.7.6-8.6.6-1.4-.1-3 .4-4.3 0-1.5.3-3.1-.2-4.4.6-.2.2 0 .4 0 .6 1.8 1.2 4.3.2 6.4.6h15.6c1.2 0 2.3-.1 3.2-.6 2-1.2 3.1-3.2 4.2-5.3.4-.7.7-1.6.8-2.4.4-1.4 1.6-2.3 3-2.4.2 2.1-.2 4.2-.7 6.1-.2 1.3-1.1 2.5-.6 3.9.1.6.8.6 1.3.7 4.8-.1 9.6-.3 14.7.1.9.2 1.7.4 2.7.4.1-.1.4-.2.2-.4-.1-.4-.4-1-1-1.1-.1-.2-.4-.2-.6-.3-2.5-1.4-5.6-.7-8.6-.6-1.5.2-3.1.4-4.4-.4-.6-.7-.2-3-.2-3 0-.9 2.2-7.2 2.5-7.7.1-.6.3-1.2.2-1.8.3-.8.2-1.8.2-2.7.2-1.3.8-2.5 1.2-3.7.2-.6.4-1.2.7-1.8.2-.8.3-1.5.8-2.1 1.3.8 2.6.8 3.2 2.3l.5 3.3c0 .2.2.6.4.4 1-.7.7-2.2.7-3.2.2-1.2-.6-1.8-1-2.9-.3-.2-.7-1.2-.7-1.2-.2-.9-2.1-1.5-1.6-2.6.2-.9.5-1.8 1.3-2.3.1.1.2.2.2.3l.5-.3v-3.3c1.3 0 3.2.2 4.5.2.4.1.6.4 1 .4l.3-.4 3.2-.6c-.9-.2-1.7-1.7-3-1.7M60.7 24.1c.1 0 .2 0 .3-.1l-.3.1"/><path d="M26.1 35.2c0 .5-.2.8-.6.9-.3-.1-.5-.1-.7-.5-.2-.4.2-.8.6-.9.3.1.7.1.7.5m-2.5 0c.2.2.3.6.2.9-.3.2-.7.4-1 .1-.2-.2-.5-.5-.3-.8.3-.3.7-.5 1.1-.2M78.8 35.6c0 .1 0 .1 0 0M109 36.3c.2.4-.2.8-.5.9-.4-.1-.9-.2-.9-.7 0-.3.3-.5.6-.6.3-.1.6.2.8.4m2.1-.1c.1.2.4.5.1.7-.2.1-.3.2-.4.3-.4.1-.8-.1-1-.5-.1-.4.3-.6.6-.8.3 0 .5.2.7.3m-97.5.5c-.2.5-.6.7-1.1.5-.1-.1-.2-.3-.3-.5 0-.3.1-.6.4-.7.5.1.9.3 1 .7m13.4.7c0 .3-.4.6-.7.8-.4 0-.7-.3-.9-.6 0-.3.2-.7.5-.8.4-.2.9.2 1.1.6m-2.4-.3c.1.1.2.4.1.6-.2.2-.6.6-1 .3-.2-.2-.5-.4-.4-.8.2-.2.4-.4.6-.5.3.1.5.3.7.4m92.6.5c0 .3-.3.6-.5.8-.3.1-.7 0-.9-.2-.2-.1-.2-.4-.2-.6.2-.3.5-.4.8-.5.3 0 .6.3.8.5m2.5.4c-.1.4-.4.7-.8.7-.2 0-.7-.1-.6-.5 0-.3.2-.6.4-.6.4-.2.9 0 1 .4m-101.6.5c.1.5-.1.8-.5 1-.3.2-.6 0-.8-.2-.2-.2-.4-.5-.2-.8.1-.4.4-.3.7-.4.4 0 .6.1.8.4m2 .4c.1.3-.2.4-.3.7-.2.1-.5.2-.7.1-.3-.2-.6-.6-.3-1 .2-.6 1.1-.3 1.3.2m94.7-.2c0 .4-.3.7-.6.9-.4.1-.7-.2-.8-.5 0-.3.2-.6.4-.8.5 0 .8.1 1 .4m3.3.6c-.1.4 0 .8-.4 1-.3.1-.7 0-1-.2-.2-.2-.3-.6-.2-.8.2-.3.6-.6 1-.5.3.2.3.4.6.5m-101.5.9c.2.3-.2.4-.3.6-.3.2-.6 0-.8-.1-.3-.2-.2-.6-.1-.8.3-.7 1.1-.2 1.2.3m99 .7c.2 0 .1.3 0 .4-1 .5-2.4.6-3.2-.2-.5-.4-1.1-.6-1.6-.9.2-.5.9-.5 1.4-.6 1.2.2 2.1 1.3 3.4 1.3m-97.1-.3c.1.3-.2.4-.2.7-.2.2-.5.2-.7.1-.4-.2-.5-.7-.3-1 .5-.5 1-.3 1.2.2m3.5.2c.2.4-.1.7-.4.9-.3.2-.5-.1-.8-.1-.2-.3-.6-.6-.2-.9.4-.7 1.1-.3 1.4.1m45.9 1.7c-.1.8-1.4-.1-1.2.9.2.8.3 1.7.8 2.2.4.5.2 1.4.2 2-.3.6-.9 1-1.5 1.3-1.1-.1-2.8.6-3.3-.8-.2-.6-.6-1.2-.6-1.9.1-.1.3-.1.4-.2 0-.3-.3-.4-.3-.7 1.3-.2-.5-1.4.6-1.4.9.9 2.4.6 3.2 1.7.2.2.3.4.6.5-.2-.9-.6-1.9-.8-2.9-.1-.5.1-1 .5-1.3.4-.6 1 .2 1.4.6m-42.4-.3c.1.4-.2.6-.4.8-.4.2-.6-.2-.7-.4-.1-.4.2-.6.4-.8.2 0 .5.2.7.4m24.5.4c.5 1.6.3 3.2-.5 4.5 0 .3.1.8-.4.8-1.1-1.5-.3-3.6.2-5.1.1-.4.6-.6.7-.2m33.9.8c.6 1.1.6 2.6.1 3.7l-.3.3c-.4-.9-.8-1.8-.9-2.8.2-.7.4-1.4.5-2.1.5-.1.5.6.6.9m-55.3.4c-.2.5-.9.6-1.3.9-.9.7-2.3.9-3.5.7 1-1.4 2.6-2.3 4.5-1.9 0 .2.2.1.3.3m-16.3 1.5c1.5 1 1.9 2.5 2.7 3.9.1.2.5.2.4.5-.3.2-.6-.2-1.1-.2-1.5-.7-2.5-2.4-2.4-4.1 0-.1.2-.1.4-.1m70.1 1.2c0 .4 0 .8-.4.9-.4.1-.8-.1-.9-.5-.1-.3.1-.4.2-.6.3-.3.9-.1 1.1.2"/><path d="M99.1 48.6c0-.8.2-1.5.3-2.2.1-.2.2-.5.2-.8 1-1.3 2.9-.9 4.4-.8.6.3 1.3.3 2 .4.3-.2.7-.2 1-.2 1.3-.7.4-2.2.5-3.3l-.5-1.2c-.1-.2-.2-.5-.3-.8-.2-.3-.4-.8-.6-1.1-.7-1.8-2-2.8-3.1-4.2-2-2.6-5.2-4.1-8.4-5.2-3.1-1.1-6.3.3-9.1 1.3-.9-.2-1.3-.9-1.5-1.7-.2-1.5.2-3 .8-4.2.1-1 .8-1.8 1.1-2.7.7-2.2 1.5-4.4 1.6-6.9.1-1.5-1-2.5-2.1-3.2-.8-.2-1.6-.2-2.2.4-.5 1.1-1.6 1.8-2.6 2.3-.1.7.8.2 1 .5.9.2 1.9-.1 2.6.4.1 1.6-.8 2.9-1.7 4.1-1.3 2-2.8 4-3.6 6.2l-.2-.2.2 9.8c1.3 2.1 2.8 4.5 5.2 5.3 1.3 1 2.9 2.3 4.6 1.4.9-.3 1 1 1.4 1.5.5 1.5-.6 2.5-.7 3.9l-1 2.2c-1.2 2.3-2.3 4.8-4.1 6.8-.6 0-1 .6-1.5.7-.3.4-1 .1-1.3.3-1.2.5-3 .2-3.8 1.4.1.1.2.2.3.2 2.4 0 5.1.2 7.7.1.3-.1.6-.4.6-.8-.4-.7.1-1.3.4-1.8.2-1 .8-1.6 1.1-2.5.8-1.6 1.8-3.2 2.7-4.9l1.2-2c.3-.7.8-1.5 1.2-2.2.3-.3.5-.7.7-1.1 0-.4-.2-.6-.4-.8.3-.3.7-.2 1.1-.3 1 .6 2 1.6 2.2 2.6l.4 1 .2.5-.1 1.3.2 1.2c.2 1.9-.2 3.9-.4 5.8-.7 2.3-3.3 2.1-5.2 2.6-.5.3-1.4.2-1.4 1 2.3.5 5 .2 7.5.2.4-.2.5-.5.7-.9.1-.5.6-1 .4-1.5-.4-.6 0-1.4-.2-2.2.1-.2.1-.5 0-.8.3-1.2.2-2.6.5-3.7v-1.2m19.5-1.5c-1.3 1.8-2.6 3.8-4.8 4.5-.2 0-.3.1-.4-.1 1.3-1.4 2.1-3.7 4.2-4.2.3-.2.7-.4 1-.2M10.4 49c-.2.2 0 .5-.4.6-.3.2-.7 0-.8-.4-.2-.4.2-.8.5-.9.3.2.6.3.7.7m11.4.6c.1.4-.3.4-.5.4-1.7.6-3.4 0-4.6-1.2 0-.2 0-.3.2-.4 1.6.5 3.5.2 4.9 1.2m-9.3-.5c.1.2.1.4.1.6-.2.4-.6.4-1 .4-.2-.1-.4-.3-.5-.5 0-.4.4-.6.7-.8.3 0 .5.1.7.3m37.2.2c.1.4-.2.6-.5.8-.4.1-.7-.1-.8-.3-.1-.3 0-.7.3-.8.3-.1.9-.1 1 .3m70.4.1c.1.4-.2.6-.5.8-.2.1-.5 0-.8-.1 0-.2-.3-.4-.2-.6.2-.4.5-.5.9-.5.3.2.4.2.6.4m2.7-.1c.2.4 0 .6-.2.9-.2.3-.5.4-.7.2-.2-.2-.6-.4-.6-.7 0-.3.4-.6.6-.7.4-.1.5.3.9.3M8.7 50.4c0 .3-.2.4-.3.7-.2.1-.4.2-.6.2-.3-.1-.5-.4-.6-.6.1-.4.3-.7.7-.8.3 0 .7.2.8.5"/><path d="M92.2 50.4c.1.2 0 .4 0 .5-.2.3-.6.6-1 .4-.2-.2-.5-.5-.4-.8.4-.4 1.1-.6 1.4-.1m-77.1.6c-.1.3-.2.6-.6.6-.4 0-.5-.3-.7-.4 0-.4 0-.7.3-.9.5-.2 1 .2 1 .7m-3.8.1c.1.4-.2.7-.4.9-.5.2-.9-.2-1.1-.6 0-.4.3-.8.7-.9.4 0 .6.4.8.6m83.5-.1c.1.4 0 .8-.4 1-.5.2-.9-.2-1.1-.6.2-.3.2-.8.7-.8.4 0 .6.1.8.4m-81.7.2c.1.3-.1.4-.2.6-.2 0-.3.2-.6.2-.2-.2-.5-.3-.5-.6 0-.4.2-.6.5-.8.5 0 .7.3.8.6m104.9.3c-.1.3-.4.5-.7.6-.3.1-.5-.2-.8-.3-.2-.2-.1-.5 0-.7.4-.7 1.5-.4 1.5.4m3 .2c-.1.4-.6.6-1 .7-.4-.2-.8-.4-.5-.9.2-.2.2-.3.5-.4.5-.2.9.2 1 .6m-18.9.2c.2.5-.3.7-.6.9-.3 0-.5-.2-.8-.3-.1-.4.1-.8.6-1 .4 0 .6.2.8.4m-10.9.5c.2.1.1.4.1.5-.2.2-.6.6-.9.3-.3-.2-.5-.4-.4-.8.2-.4 1-.4 1.2 0m2.3.3c0 .3 0 .5-.3.6-.3.3-.6 0-.9-.1-.1-.2-.2-.4 0-.6.1-.2.3-.3.5-.3.2.1.5.1.7.4m-67.4 0c.2.2 0 .5-.1.8-.2.2-.6.4-1 .2s-.4-.7-.3-1c.2-.1.2-.4.6-.4.4.1.6.2.8.4m80.3.2c.1.4-.3.6-.6.6-.5.2-.7-.2-.9-.5 0-.2.2-.4.3-.6.5-.2.9.2 1.2.5m-2.2 0c.2.4-.3.6-.4.8-.3.1-.6.1-.9-.2-.2-.1-.2-.4-.2-.6.2-.2.4-.4.6-.5.4 0 .8.2.9.5m17.9.5c.1.6-.6.3-.9.4-1.7 1-3.8.2-5.4-.4.1-.5.7-.3 1-.5 1.7-1.1 3.4.2 5.2.3l.1.2m-108.5-.5l-.2.3c-1.5.9-3.4 1.5-5.1.9l-.2-.2c1.5-1.1 3.4-1.4 5.3-1.1l.2.1m96.8.3c0 .3-.2.6-.4.8-.4.1-.9 0-1-.4-.1-.3.2-.6.5-.8.3-.1.8 0 .9.4m-89.7.1c-.2.3-.1.6-.5.8-.4.2-.9-.2-1-.5-.1-.4.2-.6.4-.8.5-.2.8.2 1.1.5m-2.9.2c.1.3-.1.4-.2.6-.2.2-.6.2-.8.1-.3-.2-.6-.5-.4-1 .2-.2.4-.3.6-.4.4.2.8.3.8.7m95.4 1c0 .4-.3.6-.6.7-.3 0-.6-.2-.8-.4-.1-.2-.1-.6.2-.8.1-.1.4-.1.5-.2.3.1.6.3.7.7M14.9 54c.1.3-.2.4-.2.7-.1.7-.6 1.1-.9 1.7-.8.9-1.8.9-2.9 1.2l-.2-.3c1.2-1.5 2.4-2.6 4-3.4l.2.1m96.3.9c.1.5-.3.6-.6.8-.4 0-.6-.2-.8-.5-.1-.4.3-.6.5-.8.4-.1.8.2.9.5m-91.7 0c0 .1 0 .2.1.2 0 .4-.4.6-.6.8-.4 0-.6-.1-.9-.4-.2-.4 0-.8.4-.9.4-.1.9-.1 1 .3m99 1.2c.4 0 .5-.5.9-.6.4-.1.8.2 1 .4.2.5-.2.7-.5.9-.3.2-.9-.2-.8.3.3.2.5.5.6.8-.1.2-.4.1-.5 0-1.2-.5-2.4-1.3-2.9-2.5-.2-.4-.9-.6-.5-1 1.1.1 2.1 1 2.7 1.7m3.8-1.2c.2.2.1.6 0 .8-.2.4-.8.2-1.1.2-.2-.2-.4-.4-.3-.7.2-.2.3-.4.6-.5.3-.2.5 0 .8.2M107.9 57c.4.4.7 1.1.9 1.6-.1.1-.3.1-.4.1-1.3-.8-3.1-1.6-3.6-3.2-.1-.2-.4-.4-.4-.6 1-.2 2 .6 2.7 1.1.4.4.7.6.8 1m-90.6-1.5c.2.4-.2.6-.4.8-.4.1-.7-.1-.9-.3-.3-.4.2-.8.6-1 .3 0 .5.3.7.5m95.6.9c0 .2-.3.4-.4.6-.3 0-.6.2-.9-.1-.1-.2-.3-.5 0-.7.4-.6 1-.2 1.3.2m9.9.6c.1.5-.2.8-.6 1-.4.1-.7-.2-1-.4-.2-.2 0-.5 0-.8.3-.2.6-.4 1-.3.2.2.4.3.6.5m-27.5 5.5c0 .5-.9.4-1.2.7-1.2.6-2.7.6-4.2.6v-.2c1.4-1.2 3.5-1.7 5.4-1.1m-57.9 1.7c0 .4-.2.6-.6.7-.3 0-.6-.2-.7-.4-.2-.5.2-.7.5-.9.4.1.8.3.8.6m57.2.4c-.1.4-.2.8-.6.9-.4.1-.6-.1-.9-.3-.2-.2-.1-.4-.1-.6.3-.7 1.4-.7 1.6 0m7.9.2c-1 .6-2.1 1.4-3.4 1.4H97l-.2-.2c1.3-1.6 3.7-1.6 5.8-1.4v.2m-76 1c0 .4-.2.6-.5.8-.4.1-.7-.1-.8-.4-.2-.4 0-.7.3-.9.4-.3.8.1 1 .5m2 .4c.1.2-.1.3-.2.5-.2.1-.6.2-.8 0-.3-.2-.4-.4-.2-.7.1-.2.4-.2.5-.4.3.2.5.3.7.6m-15.2 4c-.4.5-1-.1-1.5-.4-1.4-.8-1.3-2.4-2.7-3.3.2-.5.5 0 .8 0 .2.2.6.3.8.4 1.3.8 1.7 2.1 2.6 3.3"/><path d="M65.9 69.4c-.2.5-.5.9-.4 1.4l-.2.1c.1-.6-.5-1-.3-1.6-.3-.5-.3-1.1-.6-1.6-.4-.6.3-.9.6-1.4.6.2.8.8 1.2 1.2.2.8-.3 1.3-.3 1.9zM129 54.7c-.6-1.2-1.7-1.6-3-1.6-1 .1-1.8.8-2.2 1.6-.2.9.1 1.7.8 2.2.3.1.6.1.8-.2.2-.5-.4-.5-.4-.9-.2-.6 0-1 .4-1.4.4-.4 1.1-.2 1.5-.2.5.3 1 .6 1.2 1.2.2.7.2 1.4 0 2.1-.4 1-1.4 1.8-2.5 2-3.3.5-39.4.3-39.4.3-4.2.4-9.1-.8-12.7 1.4-1.7.8-2.5 2.6-2.9 4.3-1.1 1-2.2 2.1-3.1 3.2l-.1-.1c.2-1 .6-1.8.8-2.8.6-.8.6-1.9 1-2.8 1.5-2.4 2.9-4.9 5.3-6.6 1-1.3 2.7-1.1 4.2-1.1 1.6.8 3.5 1 5.5.8.1-.1.1-.2.1-.3-.6-.5-1.5-.7-2.1-1.2-1.6-.8-3.1.2-4.8.1-.1-.1-.2-.1-.1-.2 1.5-1.1 3.2-1.9 4.9-2.6 1.4-.8 2.9-1.2 4.3-1.7.6 0 1.2-.5 1.7-.2l2.1-.6c.1 0 .2.2.3.1 1.8-.6 4 0 6.1-.1l.3.2 1.9.5c.7.1 1 .9 1.8 1 .4-.6-.4-.8-.6-1.2.9-.2 1.9 0 2.7.4l-.4.4c-.2.4.1.8.5.9.3.1.5-.1.7-.2.5-.4 0-.7.1-1 2.9.5 5.8 1.2 8.4 2.4.8.2 1.5.8 2.3.8-.8-.8-2-1.2-3-1.6-.7-.4-1.6-.4-2.1-1 .1-.2.4-.1.5-.3 1.3-.2 2.5-1.2 3.5-2.2.1-.2.5-.2.5-.5-.4-.4-1 .1-1.4.1-1.7.3-2.4 2.3-4 2.6-2-.5-4.1-1-6.1-1.5-1-.2-2.1-.2-3-.6l-2.2-.2h-4c0-.1-.2-.1-.1-.2 1.4-.4 2.7-1.2 4.1-1.6l10.6-4.9c1.1-1 2.1-2.1 3-3.3 0-.3-.2-.6-.4-.8-.3-.1-.6-.1-.8.2-.5.4 0 .8 0 1.2-.5.6-1.2 1.2-1.8 1.6-.2 0-10.9 4.9-10.9 4.9-1.6.7-3.2 1.4-4.8 1.8l-2.3.4c-.2.5-.6.8-1 .9-.6.1-1.1.5-1.8.5-5.2 2-10.5 4.1-14.6 8.2.2-.5.4-1.1.4-1.7-.1-.6 0-1.3-.4-1.8-.1-.2-.4-.9-.3-1.1l-.6.4c-.4.9-.7 2.5-.3 3.4.1.7.7 1.6.2 2.2-1.9 2.3-3 5.1-4.2 7.8-.5-.1-.7-.5-.9-1 1.3-1.7 2.4-3.6 2.8-5.8.3-.2.1-.7.4-1-.1-.6.4-1.3 0-1.8.3-.9-1.2-1.7-.3-2.2l-.7.4c-1.7 2.2.9 5.6-1.1 7.8v.2c-.6.7-.8 1.4-1.6 1.9-1-.4-1.3-1.5-1.9-2.3-.9-.8-.9-2.6-.4-3.7.4-1.2-.2-2.2-.4-3.2l-.4-.2c-1 1.2-1.3 3.2-.6 4.7.4.7.4 1.7 1 2.3.4 1.2 1.1 1.9 1.7 3 .2.4-.2.5-.4.7-.4-.3-.4-.9-.8-1.2-1.3-2.8-3-5-5.1-7.3-.1-.4-.4-.7-.2-1.1.8-.7.9-2.1.5-3-.1-.2-.3-.4-.3-.6l-.6-.5c.1 1.4-.8 2.6-.4 4.1v.1c-4.1-3.1-8.6-5.8-13.2-8l-.4 1C45 50.1 48 52 48 52c1.4.5 2.7 1.4 4 2.1 5.4 3 9 8 11.4 13.5 0 .4.4.9.2 1.4-.8-1.3-2-2-3-3-.3-1.9-1.4-3.7-3-4.4-.6-.9-1.9-1-2.9-1.2L40 60c-11.7-.2-22.5.4-34.1.2-1.6-.2-3.6-.7-4.1-2.4-.3-.6-.3-1.6 0-2.2.4-.8 1.2-1 2-1.1.6.1 1.1.7 1.3 1.1 0 .5-.4 1-.6 1.4 0 .2.2.5.5.4.5-.2.9-.8 1-1.3 0-.3.2-.7-.1-.9-.2-.8-1.1-1.4-1.9-1.6-1-.1-2 .2-2.7.9-1 .8-.9 2.2-.6 3.4.6 1.8 2.5 3 4.3 3.2l38.6.2c3.8.2 8-.4 11.8.3 1.4.4 2.9 1.5 3.2 3 0 .1-.2 0-.3 0-3.1-2-7.3-2.8-11.3-2.3-1.6-.1-3 .5-4.4.9-.8.2-1.5-.2-1.9-.6-1.4-1.3-3.9-1.2-5.8-.7v.3c1.9-.2 3.1 1.5 4.8 1.7.4.1.7-.4 1.1 0-1.8.9-3.6 1.9-5.5 2.5-.6-.1-.9-.7-1.4-1-.8-.8-2.1-.5-3.2-.6-.4.1-.7-.2-.9 0 .3.6 1 1 1.7 1.3 1 .4 2.1 0 3.1.6-.2.3-.6.4-.8.6-1.9.7-3.4 2.4-5.5 2.3-2.2.2-4.4-.4-5.9-1.9-.6-1.6-2.3-2.4-4-2.3-.1.1-.3.1-.2.3.9.5 1.5 1.6 2.4 2.2.6.7 1.6 0 2.1.8.8.5 1.7 1 2.6 1.1.6.3 1.3.4 2.1.6l-.3.2c-3.6 1.2-7.8 1.3-11.8 1.2-1.2 0-2.3-.4-3.5-.4.2.2.6.4 1 .6-.3.2-.7.3-1.1.3-.5.1-1 .2-1.5.4-.6 0-1.2.2-1.7.4-.7.7-1.5 1.5-2.3 1.8 0 .2 0 .4.2.4.8-.3 1.7-.1 2.5-.4 1.3-.1 2.1-1.6 3.1-2.2 1.1-.9 2.7-.7 4-.5.8.2-.1.5.2 1 .3.3.6.6 1 .5.1-.1.2-.2.3-.2.2-.3.2-.7 0-1 .6-.4 1.3 0 1.9-.2 1.5 0 3-.4 4.5-.4.2 0 .5-.3.8 0-.1.3-.5.4-.4.8.1.4.5.5.8.6.4-.2.8-.4.6-1-.1-.3-.4-.3-.6-.4.8-.4 1.8-.5 2.6-.9.6-.1 1.2-.3 1.7-.6.5 0 1-.5 1.4-.3-.2.7-.5 1.3-.8 1.9-.6 2.1-1.1 4.9 0 7 .1 0 .2 0 .2-.1-.8-2.1-.4-4.6.4-6.6.6-3.4 4-4.4 6.5-5.7l.1.2c-.7 1.8-1.7 3.4-1.5 5.6.1.4-.2.7 0 1 .7-.4 1.1-1.2 1.5-1.8.3-1.8-.8-4 1.1-5.4 3.3-1.3 6.3-3 10.1-3 .1.1.4-.1.4.2-.8.9-1.9 1.7-2.3 2.8-1.3 1.8-1.2 4.8-.7 6.9.4 1.2-.7 1.9-1.2 2.9-.2.3-.3.9-.5 1.3l.8.1c.7-.7 1.3-1.6 1.3-2.6.1.4.4.7.8.8.3-.4-.2-.8-.3-1.2.6-.4.9.4 1.4.6.8.2 1.5.6 2.4.6l.3-.3c-.9-1.4-2.6-1.6-4.1-1.7-.8-1.3-.8-3-.7-4.6.2-.8.3-1.7.8-2.5.2-.6.8-1.1 1.1-1.5.7-.7 1.6-1.2 2.5-1.4h.1v.1c-1.1.8-1.2 2-1.8 3-.7 1-1 2.4-.4 3.5.2.5.1 1.3.7 1.7.5-.7.6-1.6.8-2.4-.1-1.3-.9-2.6-.2-3.8.4-1 1.2-1.4 2.1-1.8 2.2-.2 4.1.9 6 1.8.4.3 1.1.5 1.2 1.1 0 1.1-.6 2.2-1.5 2.7-1.1.6-2.6.7-3.6 0-.6-.6-.8-1.6-.6-2.4.4-.5 1-.9 1.7-.6.4.2.8.6 1.3.4.2-.1.3-.4.2-.6-.4-.2-.6-.8-1.2-.9-.8-.1-1.7-.1-2.2.4-.8.7-1.2 1.8-.9 2.8.3 1.3 1.2 2.2 2.5 2.6 1.8.4 3.7-.1 4.9-1.7.5-.5.6-1.1.9-1.7 1.9 1.2 3.3 3.2 4.1 5.3 0 .7.2 1.4 0 2l1.4.1c-.1-.3 0-.7.1-1 .5-2.6 2.1-4.8 4.1-6.6.7-.4.5.5.7.8.6 1.5 2 2.6 3.5 3 1.7.3 3.3-.1 4.3-1.4.5-1 1.2-2.4.3-3.4-.6-.7-1.3-1-2.2-1-1 0-1.7.7-2.2 1.5 0 .3 0 .7.2.8.2 0 .5 0 .6-.2.1-.6.6-.9 1.1-1.2.4-.2.9 0 1.3.2.4.4.5 1 .6 1.6-.1.8-.6 1.6-1.3 1.9-1.2.6-2.8.3-3.8-.4-.5-.5-.8-1.1-1.1-1.8-.1-.6-.3-1.2 0-1.8 1.7-1 3.6-1.8 5.7-2 .8.2 1.5.7 2.1 1.3 1.8 1.9-.4 4.6.9 6.6.5-.1.5-.7.7-1.1.6-1.4-.2-3-.5-4.4-.5-.9-.8-1.6-1.5-2.4.2-.1.3-.1.5-.1.8.6 1.7 1.2 2.4 2.1 1.1 1.9 1.7 4.1 1.5 6.6-.3 1.2-1.6 1.8-2.6 2.2-.4.3-.9.8-1.1 1.3.5.3 1.2 0 1.6-.2.8-.3 1.2-1.2 1.7-1.7.1 0 0 .2.1.2 0 .4-.2 1 .2 1.2.2-.6.2-1.4.4-2 .5.6.6 1.3.8 2 .4.7 1 1.7 1.9 1.8.2-.4 0-.7-.1-1-.1-1-1-1.5-1.5-2.2-1.4-1.9-.8-4.9-1.8-7.1-.4-1.2-1.2-2-2.1-3l.2-.2c1.9 0 3.6.6 5.4 1 2.2 1.1 5.4.8 6.4 3.7.4 1.6 1.2 3.1 2.3 4.3l.1-.1c.2-.4.2-1.1 0-1.5-.2-2-2-2.5-2.9-4.2l.1-.2c1 .3 1.9.5 2.9.9 3.2.9 5.4 4 5.8 7.2 0 2.6-.5 4.7-1.5 6.8-.1.3-.7.7-.3 1 .4-.3.5-.8.8-1.2 1.3-2.2 2-5.2 1.3-8 0-.5-.6-.9-.4-1.4.2.2.4.3.7.4.2-.2.6-.2.8-.4 0-.2.2-.5 0-.7-.2-.4-.8-.4-1.2-.3-.2.2-.4.6-.5.9-.4-.7-.8-1.6-1.4-2.1l.1-.1c1.8.6 3.4 1.5 5.2 2 .4.2.8.4 1.4.4 1.5.6 3.3.8 4.9 1.2 1.2-.1 2.2.4 3.4.2v-.1c-.4-.6-1.4 0-1.9-.4-2.7-.3-5.4-1-7.8-2 0-.1.2-.1.3-.1.4-.2.7-.6.6-1-.2-.3-.5-.4-.9-.4-.2.1-.6.4-.6.7 0 .3.3.7.6.8-.1.1-.2 0-.4 0-1.2-.6-2.4-1.1-3.6-1.6-.4-.1-.8-.4-1.2-.5-.9-.4-1.8-.9-2.7-1.2-2.5-1.3-5.4-2-8.1-3-.6-.2-1.2-.3-1.7-.5-1-.3-2-.5-3-.8-3.4-.8-7.9-.9-10.8.9-.5-.2-.8.6-1 .1.8-2.2 3.3-2.9 5.4-3 15.9-.2 30.8-.3 46.5-.5 1.8 0 3.6-.6 4.6-2.3.1-1.6.2-3.2-.3-4.3z"/><path d="M109 66.9c0 .1.2.2.2.4-1.4 1.2-3.3 1.6-5.3 1.7-.2 0-.3.2-.5.1-.1-.1-.2-.2-.1-.3 1.3-1.6 3.5-2.4 5.7-1.9zm-6.4.7c.2.6-.2.9-.6 1.1-.4 0-.7-.3-.9-.6-.1-.3.2-.5.3-.7.3-.4 1-.4 1.2.2zm-75.4 0c.1.3 0 .6-.2.8-.2.2-.5.2-.7.2-.3 0-.4-.4-.5-.6 0-.4.2-.6.5-.8.3.1.6.1.9.4zm-7.1 2.6v.3c-1 .2-1.9 0-2.6-.6-.6-.8-1.2-1.6-2.1-2 0-.1-.2-.3 0-.4 2 .1 3.2 1.7 4.7 2.7zm94.9-2.6c-.9 1.4-1.7 3-3.3 3.6-.3 0-.5.4-.8.1.6-1.5 2-3.2 3.5-3.8.2.1.4 0 .6.1zm-85.5.5c0 .4-.3.5-.6.8-.3 0-.5-.2-.7-.4-.2-.4.2-.6.4-.8.4-.1.7.1.9.4zm90.5.2c-.4.5-.2 1.3-.6 1.8-.8.9-1.5 2-2.7 2.2-.2-.4.3-.8.5-1.2.6-1.2 1.3-2.6 2.6-3.1l.2.3zm-112.2.4c.1.3.2.6 0 .9-.2.2-.6.3-.9.2-.4-.2-.5-.6-.3-1s.9-.6 1.2-.1zm-2.3.5c0 .2.2.4.1.6-.1.2-.3.4-.6.5-.4.1-.7-.2-.9-.5 0-.4.1-.7.4-.8.4-.3.8-.1 1 .2zm4.7.2c.1.3.2.9-.3 1-.6.2-.9-.2-1.2-.5 0-.4.2-.6.5-.8.4-.1.7 0 1 .3zm6.5.5c0 .3 0 .7-.3.8-.2.2-.6.1-.8.1-.1-.2-.5-.4-.3-.7.2-.2.3-.3.6-.4.3 0 .6-.1.8.2zm107.1.3c-.1.3-.3.6-.6.6-.4 0-.7-.1-.9-.4-.2-.4.2-.7.5-.8.4 0 .9.2 1 .6zm-7.3.2c0 .3-.3.6-.5.7-.6.2-1-.2-1.2-.6.1-.4.4-.6.7-.7.5-.1.8.2 1 .6zm5-.1c0 .3-.2.6-.4.7-.3.1-.7.1-1-.2-.4-.3-.1-.6.2-.8.4-.2 1-.2 1.2.3zM6.7 71c.1.4-.1.8-.5 1-.4 0-.8-.2-.9-.6 0-.4.1-.7.4-.8.5-.1.8.1 1 .4zm107.9.4c.1.4-.1.8-.6 1-.3.1-.5-.1-.8-.3-.2-.2-.4-.6 0-.8.3-.5 1.1-.3 1.4.1zm-86.5.5c.2.4-.3.5-.4.8-.2.1-.5.1-.6 0-.2-.2-.4-.5-.3-.8.2-.2.3-.3.5-.4.4-.3.5.1.8.4zm95 .3c.1.3-.2.4-.2.6-.2.2-.6.2-.9.2-.4-.2-.4-.5-.4-.9.2-.2.3-.4.6-.4.3-.1.8.1.9.5zm-2.5.1c.2.5-.3.7-.6.8-.2 0-.4-.1-.4.2 1 .5 1.7 1.4 2.5 2.1v.3c-1.4 0-2.9-.4-3.9-1.5-.3-.2-.8-.2-1.1-.5.5-.5 1.5-.3 2.2-.4.5-.6-.6-1 .1-1.4.2 0 .4-.3.7-.2.2.1.4.3.5.6zm-16.2 0c.1.2-.2.4-.2.6-.2.2-.6.3-.9.2-.2-.3-.5-.5-.4-.9.3-.6 1.4-.5 1.5.1zm-88.7 1.4c-.1.4-.3.6-.7.6-.3 0-.6-.2-.7-.5 0-.3.2-.4.2-.6.5-.3 1.2-.1 1.2.5zm3.2-.5c0 .6-.6.9-.8 1.4-.6 1.3-1.7 2.5-3.2 2.6-.2-.4.5-.8.7-1.2.6-1.4 1.9-2.1 3.1-2.9h.2v.1zm84.5.6c0 .4-.4.8-.7.9-.4.1-.6-.2-.8-.3-.3-.3-.1-.6 0-1 .6-.5 1.2-.1 1.5.4zm2.5.2c0 .4-.3.8-.7.9-.1-.1-.3 0-.4-.1-.3-.2-.5-.4-.5-.7.2-.2.3-.5.6-.6.3 0 .9.1 1 .5zm-80.8 0c0 .4-.3.7-.6.8-.4 0-.6-.2-.8-.5-.1-.4.3-.6.5-.8.5-.1.6.3.9.5zm2.7.2c-.1.4-.4.6-.8.7-.3-.1-.6-.2-.7-.5 0-.4.3-.6.6-.8.4 0 .8.1.9.6zm86.6 2.8c.2.2.6.4.5.6-.6.3-1.1-.4-1.7-.6-1-1-1.7-2-2.1-3.2.4-.4.8.1 1.1.2.9.8 1.8 1.8 2.2 3zm1.5-2.8c.1.3.1.6-.1.9-.2.4-.8.3-1.1.2-.2-.2-.6-.6-.3-.9.1-.3.5-.4.8-.5.2-.1.4.1.7.3zm-84.4 1c0 .3.1.8-.3 1-.4.1-.8 0-1-.5-.2-.5.2-.6.5-.8.3-.1.5.1.8.3zm74.3 2.6c.6.8 1 1.8 1 2.8-.1.3.2.6 0 .8h-.2c-1.8-1.3-2.2-3.1-2.9-4.9-.2-.1-.2-.2-.2-.4.4-.4.7.4 1.1.5l1.2 1.2zm-69.2-1.4c0 .1 0 .1 0 0-1.5 1.2-3.8 1.9-5.6.8 0-.1 0-.3.2-.4 1.2-.4 2.3-.9 3.5-.8l1.9.4zm-9 .2c-1.3.8-2.6 2.5-4.2 2.9-.3.1-.5.6-.9.3.7-2.2 3.1-3.3 5.2-3.5v.3h-.1zm75.8 1.8c.1.3 0 .8-.3.8-.2.2-.6.2-.8 0-.4-.2-.4-.5-.4-.8.1-.3.4-.3.6-.4.5.1.7.1.9.4zm-3.2.2c-.2.6-.9.9-1.4 1-1.3.5-2.6-.2-3.8-.5 0-.3.4-.2.6-.4 1.3-.3 2.7-.6 4-.2.2 0 .4 0 .6.1zm-72.6 1.2c-.1.2-.2.5-.5.6-.3.1-.6 0-.8-.2-.1-.2-.4-.4-.2-.7.1-.3.4-.4.6-.4.5.1.8.3.9.7zm2.3.4c-.1.2-.2.6-.6.8-.3.1-.6-.1-.8-.3-.1-.2-.2-.5-.1-.8.1-.2.4-.2.6-.4.4-.1.7.3.9.7zm72.8.3c0 .3-.1.5-.3.8-.2.3-.6.3-.9.2-.3 0-.4-.4-.5-.6-.2-.3.2-.5.3-.8.5-.3 1.2-.2 1.4.4zm1.7 0c0 .2.2.4.1.6-.2.2-.4.7-.9.5-.2.1-.4-.2-.5-.3-.2-.4 0-1 .5-1.1.4-.2.6.1.8.3zm-75.9 1.1c.1.4-.1.8-.4 1.1-.4.1-1 .1-1.2-.4 0-.4 0-.9.5-1.2.4 0 .9 0 1.1.5zm2.2-.1c-.1 1.1-.3 2.5-1.4 3.1-.6.1-1.3.7-1.9.3v-.2c.8-1.2 2.3-2.1 3.3-3.2zm65.8.9c.2.2-.1.4-.2.6-.2.3-.7.2-1 0-.3-.1-.3-.5-.2-.8.1-.2.3-.4.5-.4.4 0 .7.3.9.6zm-61.8 1.8c.6.9.2 2.2.6 3.2-.7.1-1-.7-1.4-1.1-.9-1.2-.8-2.8-1.2-4.2.1-.1.2-.1.3-.1.6.4 1 1.2 1.5 1.7-.1.3.2.3.2.5zm63.7-1.5c0 .3-.4.4-.6.6-.3 0-.5-.2-.8-.4-.1-.4.2-.5.4-.7.5-.1.9.1 1 .5zm4.8 3.6c0 .1 0 .4-.2.3h-.2c-1.2-1-2.3-2.2-2.1-3.8h.2c1 .8 2.2 1.8 2.3 3.5zm-3-1.3c0 .3-.2.6-.4.8-.4.1-1.1.1-1.2-.5 0-.4.4-.6.6-.8.5-.2.8.1 1 .5zm-2.6.8c-.6 1.5-2.1 2.2-3.1 3.4-.2-.1-.1-.4-.1-.6.4-1.5 1.6-3 3.1-3.6.6.1 0 .5.1.8zm3 1.2c0 .4-.4.5-.6.7-.3 0-.6-.1-.9-.4 0-.4.3-.5.5-.7.4-.1.8.1 1 .4zM71.1 14.8h-.4c-1.1 0-.2 1.4.4 1.4.8 0 .8-1.4 0-1.4zm-3.6 1.4c1.2 0 .1-1.4-.6-1.4h-1.1c-1.1 0-.1 1.4.6 1.4h1.1zm-4.8 0c1.1 0 .1-1.4-.6-1.4H61c-1.1 0-.1 1.4.6 1.4h1.1zm8.3-1.7c.5 0 1 .4 1 1 0 .5-.4 1-1 1H59.2c-.5 0-1-.4-1-1 0-.5.4-1 1-1H71zm.1 18.2c0 .5.7.2 1.2.2s1.2.3 1.2-.2c0-.7-.7-.5-1.2-.5s-1.2-.2-1.2.5zm2.2 1.3c.5 0 .5-.7.5-1.3 0-1.4-1.1 0-1.6-1.3-.4 1.1-1.5.1-1.5 1.2 0 .8 0 1.3.8 1.3h1.8v.1zM70 28l2.2.9 2.2-.9-.9 3.3 1.8-.4-.6 2 .6 1.9-1.6-.4.7 3.6-2.2-.9-2.2.9.9-3.6-1.8.5.5-2-.5-1.9 1.7.3L70 28zm-5.3 4.9v-.5h-.3l.3-.3-.2-.4.4.1.2-.5.2.5.4-.1-.2.4.3.3h-.3v.5l-.4-.3-.4.3zM63 35.1v-.4l-.4-.1.3-.3-.2-.3h.4l.3-.4.2.4h.4l-.2.3.3.3-.4.1v.4l-.3-.3-.4.3zm3-.3v-.4l-.4-.1.3-.3-.2-.3h.4l.2-.4.2.4h.4l-.1.3.2.3-.3.1v.4l-.4-.3-.3.3zm.3 1.7v-.2l-.2-.1.2-.2-.1-.2.2.1.1-.3.1.3.3-.1-.1.2.1.2-.2.1v.2l-.2-.2-.2.2zm-2.7 1.9v-.7l-.7-.1.5-.6-.3-.5h.7l.4-.7.4.7h.6l-.3.5.5.6-.6.1v.7l-.6-.4-.6.4zM65 .7l1.4 3.5 3.5-1.1-1.8 3.3 3 2.1-3.6.6.2 3.7-2.7-2.5-2.8 2.5.2-3.7-3.6-.6 3-2.1L60 3.1l3.6 1.1L65 .7zM52.2 77.8c-.4.2-.6.3-.5.7l.5 2.1c.1.4.1 1-.1 1.4-.3.5-1 .7-1.4.9-.3.1-1.1.2-1.7 0-.4-.2-.7-.4-.8-1.1l-.5-2.2c-.1-.6-.3-.5-.8-.5v-.2l2.7-.6v.2c-.5.1-.8.2-.6.8l.5 2.2c.1.4.3 1.3 1.4 1 1.4-.3 1.2-1.3 1.1-1.8l-.5-2c-.1-.4-.2-.6-.9-.5V78l1.7-.4-.1.2zm3.9.4c-.2-.4-.9-1.1-1.8-.9-.4.1-.8.4-.7.8.1.4.3.5 1 .6l1.3.2c.3.1 1 .3 1.1 1 .1.6-.2 1.5-1.7 1.8-.7.2-1.2 0-1.4.1-.2 0-.2.2-.2.3l-.2.1-.4-1.6.2-.1c.3.6.9 1.3 1.9 1.1.9-.2.8-.9.8-1-.1-.4-.5-.5-1.1-.6l-.6-.1c-1.5-.2-1.6-.8-1.7-1.1-.1-.4 0-1.4 1.5-1.7.6-.1 1.1 0 1.3-.1.2 0 .2-.1.2-.3l.2-.1.3 1.4v.2zm5.2 2.6l-2.9.3v-.2c.6-.1.8-.1.7-.7l-.3-3.6c-.6.1-1.4.2-1.4 1.3h-.2l-.1-1.4 4.8-.5.1 1.4h-.2c-.3-1.1-1.1-1-1.7-1l.3 3.6c.1.6.2.6.8.5l.1.3zm3.3-2.4c1.1 0 1.5-.1 1.5-1 0-.7-.3-1-1-1-.4 0-.5.1-.5.3v1.7zm3.5 2.4h-1.7l-1.6-2.2h-.2v1.3c0 .5.2.6.7.6v.2l-2.7-.1v-.2c.6 0 .7-.1.7-.6l.1-3c0-.6-.2-.6-.7-.6V76l2.6.1c.6 0 2.3.1 2.3 1.2 0 .8-.9 1-1.3 1.1l1.6 2c.1.1.2.1.3.1l-.1.3z"/><path d="M71.1 79.6l-.6-1.7-1 1.5 1.6.2zm2.3 1.9l-2.6-.3V81c.5 0 .6 0 .7-.2 0-.2-.2-.7-.3-.9l-1.8-.2c-.3.5-.4.7-.5.8 0 .3.4.3.6.4v.2l-1.6-.2v-.2c.4 0 .6-.2.9-.7l2.2-3.5h.2l1.4 3.8c.3.8.4 1 .8 1v.2zm4.7 1l-4.6-.8v-.2c.5 0 .7.1.8-.3l.6-3.2c.1-.4-.2-.5-.6-.6v-.2l2.8.5v.2c-.6-.1-.8-.1-.9.5l-.6 3.2c-.1.3.1.4.6.5 1.2.2 1.7-.3 2.3-.9h.2l-.6 1.3z"/><path d="M81.1 83.2l-2.8-.6v-.2c.4.1.7.1.8-.3l.7-3.2c.1-.4-.3-.5-.6-.6v-.2l2.8.6v.2c-.4-.1-.8-.1-.8.3l-.7 3.2c-.1.4.2.5.7.6l-.1.2zm3.4-1.2l-.6-1.7-.9 1.6 1.5.1zm2.3 1.9l-2.6-.3v-.2c.5 0 .6 0 .7-.2 0-.2-.2-.7-.3-.9l-1.8-.2c-.3.5-.4.7-.4.8 0 .3.4.3.6.4v.2l-1.6-.2v-.2c.4 0 .6-.2.9-.7l2.2-3.5h.2l1.4 3.7c.3.8.4 1 .8 1l-.1.3zM64.7 29.4c-.5 0-1.1.3-1.1-.2 0-.8.5-.6 1-.6s1.2-.2 1.2.6c0 .5-.7.2-1.1.2zm1.4-.3c0-1.6-.9-.1-1.4-1.5-.4 1.2-1.5.2-1.5 1.4 0 .5.1.8.4.9v.5c0 .1.1.2.2.2h1.7c.1 0 .2-.1.2-.2v-.5c.2-.2.4-.4.4-.8zm14.2 20c.4 0 .7-.3.7-.7 0-.4-.3-.7-.7-.7-.4 0-.7.3-.7.7-.1.4.3.7.7.7zm-3.5-24.2s-.4.6-.4.7c0 .2.2.4.4.4s.4-.2.4-.4c-.1 0-.4-.7-.4-.7zm-24 0s-.3.6-.3.7c0 .2.2.4.4.4s.4-.2.4-.4c-.1 0-.5-.7-.5-.7zm6 0s-.3.6-.3.7c0 .2.2.4.4.4s.4-.2.4-.4c-.2 0-.5-.7-.5-.7zm6 0s-.4.6-.4.7c0 .2.2.4.4.4s.4-.2.4-.4c-.1 0-.4-.7-.4-.7zm6 0s-.3.6-.3.7c0 .2.2.4.4.4s.4-.2.4-.4c-.2 0-.5-.7-.5-.7zm-18 8.3s.3.6.3.7c0 .2-.2.4-.4.4s-.4-.2-.4-.4c.1 0 .5-.7.5-.7zm0 8s.3.6.3.7c0 .2-.2.4-.4.4s-.4-.2-.4-.4c.1-.1.5-.7.5-.7zm1 6.3s.4.6.4.7c0 .2-.2.4-.4.4s-.4-.2-.4-.4l.4-.7zm5 3.3s.3.6.3.7c0 .2-.2.4-.4.4s-.4-.2-.4-.4c.1 0 .5-.7.5-.7zm18.3-17.6s-.3.6-.3.7c0 .2.2.4.4.4s.4-.2.4-.4c-.2 0-.5-.7-.5-.7zm0 8s-.3.6-.3.7c0 .2.2.4.4.4s.4-.2.4-.4c-.2-.1-.5-.7-.5-.7zm-1 6.3s-.4.6-.4.7c0 .2.2.4.4.4s.4-.2.4-.4l-.4-.7zm-5 3.3s-.4.6-.4.7c0 .2.2.4.4.4s.4-.2.4-.4c-.1 0-.4-.7-.4-.7zM65 54.4s-.3.6-.3.7c0 .2.2.4.4.4s.4-.2.4-.4c-.2 0-.5-.7-.5-.7zm9.7-11.9c.1.1.3.2.5.1l.2-.6s-.3-.3-.4-.3c-.6.2-1.3.2-1.7.8 0 .4.3.8.6 1 .2-.1.3.2.4.3 0 .2-.1.3-.3.3-.5-.5-1.2.2-1.6-.4.1-.6.5-1.2 0-1.7 0-.1.2-.2.1-.3-.2-.5-.8-.1-1.1-.1-.6-.1-1 .2-1.4.7 0 .2.1.4.3.6.2 0 .2 0 .3.2l-.4.2c.1.1.1.3.2.4-.3.1-.5-.3-.6-.5 0-.3 0-.8-.4-.9-.1 0-.3.1-.3.1-.1.1-.2.4-.2.6 0 .3.1.7.1.7s1.2.9 1.4 1.4c-.3.7-.3 1.6-1.1 2-.2.2-.2.4-.2.6l.2.2c.5-.3 1.4-.3 1.4-1.2.2-.3.4-.7.7-1 .4-.1.7.1.9.4-.1.6-.5.9-1 1.1-.1.1 0 .2 0 .3.2.3.6.2.8.1.6-.4.9-1.2 1.5-1.4.1.4-.8.5-.2.9.3-.1.8 0 1-.4-.3-.6.9-.9.2-1.5 0-.6.6-.8.6-1.4-.2-.6-.9-.6-1.1-1.2 0-.3.4-.2.6-.1zm-27.5 6.9c.4 0 .7-.3.7-.7 0-.4-.3-.7-.7-.7-.4 0-.7.3-.7.7-.1.4.3.7.7.7zM8.3 72.1c.4 0 .7-.3.7-.7 0-.4-.3-.7-.7-.7-.4 0-.7.3-.7.7 0 .4.3.7.7.7zm24.8 5.5l-.1-.1c0 .1 0 .1.1.1h-.2v-.1h.1l.1.1c-.1-.1-.1-.1 0 0zm.1-.1s-.1 0 0 0c-.1 0-.1 0 0 0-.1 0-.1 0 0 0 0 .1 0 .1 0 0-.1.1-.1.1 0 0-.1.1-.1.1 0 0l-.1.1.1-.1c-.1.1-.1.1 0 0-.1.1-.1.1 0 0-.1.1-.1.1 0 0-.1 0-.1 0 0 0-.1 0-.1 0 0 0-.1 0-.1 0 0 0zm.2 0l-.1.1v-.1.1-.1h.1v.1-.1c-.1 0-.1 0 0 0-.1 0-.1 0 0 0z"/><path d="M33.4 77.6c.1-.1.1-.1 0 0 .1-.1.1-.1 0 0 0-.1 0-.1 0 0 0-.1 0-.1.1-.1 0 0 .1 0 .1.1h-.2z"/><path d="M33.6 77.5c0 .1 0 .1 0 0-.1.1-.1.1 0 0-.1.1-.1.1 0 0 0 .1 0 .1 0 0 0 .1 0 .1 0 0 0 .1 0 0 0 0zM78 45.4c-.1 1.6-.7 2.9-1.8 3.7l-10.4 6.6h-.1c-.2.2-.5.3-.8.3-.3 0-.6-.1-.8-.3l-10.4-6.6c-1.1-.8-1.6-2.1-1.8-3.7V24.7H78v20.7zm.7-21.4H51.1v21.1c0 2.2.9 4 2.2 4.6l10.6 6.8c.2.3.6.4 1 .4.3 0 .6-.1.9-.3l10.8-6.8c1.3-.6 2.2-2.5 2.2-4.6L78.7 24z"/><path d="M68.6 54.8l.3-.2c-.1.1-.2.1-.3.2zM45.2 82.3l-1-1.5-.6 1.7 1.6-.2zm2.6 1.4l-2.6.3v-.2c.5-.1.6-.1.6-.3 0-.2-.3-.7-.5-.9l-1.8.2c-.2.5-.3.8-.3.9 0 .3.4.2.7.2v.2l-1.6.2v-.2c.4-.1.5-.3.7-.9l1.4-3.9h.2l2.2 3.3c.4.7.6.9 1 .8v.3z"/><path d="M92.5 75.3c-.4.7-.9 1.2-1.7 1.4 0-1 .9-1.6.6-2.7-.5-.8-1.5-1-2.5-.8-.4.2-.2.6-.3 1l-.2 1.3c-.8 0-.8-.7-1.1-1.3 0-.8.4-1.7 1.2-2.1.6-.3 1.7-.3 2.3.1.5.1 1.1.4 1.3.8.7.6.6 1.6.4 2.3zm-3.2.4c.4-.4-.1-3 1.1-1.3 0 .3 0 .8-.3 1-.1.2-.5.5-.8.3zm.5 1c0 .6-.6.5-.9.7h-1c-.2-.3-.1-.8-.1-1.1.7.1 1.4.1 2 .4zm1.1 4.8c-.3.4 0 1-.4 1.4 0 .7-.6 1.1-1.1 1.4-4.7 1-9.4-.6-13.9-1.4-6.4-1.4-13.8-1.8-20.3-.3-3.1.6-6 1.3-9 2.1-1.8.2-3.8.5-5.6 0-1.4-.7-.8-2.5-1.3-3.8.1-1-.3-1.8-.3-2.8-.1-.3-.2-.7-.2-1 .6.1 1.2.5 1.8.7 3.3.6 6.3-.4 9.4-1 3-.6 6-1.2 9.2-1.4 3.6 0 7.2-.2 10.6.4 1.1 0 2.1.3 3.1.4 2.2.3 4.3.9 6.5 1 .4.1.8.1 1.2.2 3.6.6 7.6 1.6 11 0 .1 1.4-.5 2.8-.7 4.1zm-20.2 3c.2.6.6 1.1.4 1.8-.4.8-1.2.8-1.9.9-.4 0-.6-.1-.9-.3 0-.2 0-.3-.2-.4.1-.5-.9-1-.2-1.5.6-.6 2.1-2 2.8-.5zm.9.1c.5.1.5.6.6 1 0 .9-.5 1.6-1.3 2-.4.2-1.1.3-1.5.2 1 0 2-.4 2.4-1.4l-.2-1.8zm1 5.3c-.1 0-.1.1-.1.2-1.2 0-1.9-.6-2.8-1.2v-.2c1.1 0 2 .7 2.9 1.2zm-1.4 3.7c0 .1-.2.1-.3 0-1.2-1.5-1.7-3.1-2.5-4.8h.2c.9 1.6 1.6 3.3 2.6 4.8zm-2-.9l-.2.1c-.2-.2-.1-.6-.1-.8.2.1.4.4.3.7zm-1.1-2.4c0 .4.4.6.2.9-.1-.2-.4-.5-.2-.9zm-.3-2.7l.1.1h-.1v-.1zm-2.3 5.9c-.8 0-1.9.5-2.6-.2 0-.3-.3-.5-.3-.8.6-.2 1.2.5 1.8 0 .9 0 1.9-.1 2.8.1.4.1 1.1-.7 1.2.1-.3 1.3-1.9.4-2.9.8zm-1.7-4.8l.2-.3c-.3 1-.8 2-1.3 2.9-.3-1 .7-1.7 1.1-2.6zm1.1-.7c.5-.6 1 .3 1.2.8.6.9 2.1 1.7 1.5 2.9-.8.7-1.9 0-2.8.6-.4 0-1.2.1-1.4-.4.5-1.4.9-2.8 1.5-3.9zm-.1-1.5h-.2l.2-.2c.2 0 0 .1 0 .2zm.9 0c.2-.2.4-.6.6-.6 0 0 0 .1.1.1-.2.3-.4.5-.7.5zm.5.6c.1-.1.3-.1.4 0h-.4zm1.1 1.3c0 .1 0 .2-.1.3l-.9-.7c.5-.1.8.1 1 .4zm-.1-2.5v.1-.1zm1.7-2.4c-.5.2-.8.7-1.3.8.2-.4.8-.9 1.3-.8zm-2-.6c-.1-.4.4-.1.5-.2l1.2.1c-.6-.1-1.4 1.4-1.7.1zM64 84.1c.2-.6.2-1 .6-1.5.4 0 .8 0 1.1.2.1.8 1.1 1.9 0 2.6-.4.2-.9.5-1.3.2-.5-.6-.6-1-.4-1.5zm-.6 2.4c0-.2.1-.4.1-.6.2-.2.4.2.5.3-.1.3-.3.4-.6.3zm-.1-2.2v.4-.4zm-.4-.8c-.5-.1-.8-.7-1.3-.7.5-.2 1-.1 1.5 0 .2.2-.2.5-.2.7zm-.4 3.2c.1-.5.4-1.2.6-1.7 0 .6-.3 1.3-.6 1.7zm-.9 0c-.7-.1-1.3-.3-1.9-.5-.4-.4 0-.8 0-1.3.6-.9 2.1-1.3 2.9-.5-.1.9-.4 1.7-1 2.3zm.4 1.1v.2h-.1l.1-.2s-.1 0 0 0zm-1 2.3c-.6 1.3-1.2 2.5-1.9 3.8-.1.2-.4.2-.6.3 0-.6.6-1 .8-1.5.8-1.1 1.1-2.2 2-3.3.1.3-.3.4-.3.7zm-3.8-.4c1-.4 1.9-1.2 3-.9-.7.7-2 .9-3 .9zm1.4-2.7c-.2-1.4.4-2.6 1.3-3.6.6-.1 1.2-.2 1.7.1-1 .3-2.3.5-2.6 1.8 0 .5-.1.8.1 1.2.4.8 1.4.4 2 1 0 .2-.2.4-.4.5-.6-.3-1.4-.5-2.1-1zM40 74.2c.1-.3 0-.8.4-.9.3-.1.7-.1.8.2 0 .5-.1 1-.2 1.4-.5.1-.8-.3-1-.7zm.1 1.3c.6.4 1.4.2 2.1.4.1.4.1 1-.2 1.4-.7-.2-1.5-.1-1.9-.7.2-.4 0-.8 0-1.1zm-1.8-1.1c.1-.7.3-1.5 1-2 1-.5 2.3-.4 3.1.1.3.2.5.4.6.8.2.7-.1 1.4-.6 1.8H42c0-.6 0-1.3.2-1.8 0-.5-.4-.5-.8-.7-.7-.2-1.3.1-1.8.4-.4.5-.8 1.1-.5 1.8.3.4 0 1 .2 1.5l-.1.2c-.4-.7-1-1.2-.9-2.1zm37.2 16.9c.9.4 2.9.8 4.2 1-.1.5-1.1 0-1 .8-1.2-.5-2.7-.7-3.6-1.7.2 0 .2-.1.4-.1zm-24.8.7l-.6-.5c.3-.4.9-.2 1.3-.4 1-.3 2.2-.7 3.4-.5-1.1.9-2.7 1.1-4.1 1.4zm42.9-18.2c-.5-1.2-1.5-2.1-2.7-2.5-1.3-.3-2.6-.1-3.5.9-1.4 1.2-.4 3.1-.4 4.6 0 .3 0 .6-.3.7-5.8-.5-11.1-2-16.8-2.6-1.3-.2-2.6-.2-3.9-.4l-1.6-.2c-5 .2-9.9.4-14.6 1.6-1 .3-2.1.4-3.1.8-.7-.1-1.3.4-2 .2l-1.3.3H43c-.6-1.6 1.3-2.6.7-4.2-.5-.9-1.5-1.8-2.7-1.6-1.3-.2-2.5.6-3.2 1.6-.9 2 .2 4.1.6 6-.1.6.6 1.4 0 1.9-1.2-.9-2.9-1.3-4.4-.9-.5.2-1.3-.1-1.6.5 1.7.9 3.9.8 5.8.7.2-.1.4-.1.6 0 .2 1-.2 2.4.4 3.4.7 1 1.9 1.2 3.1 1.3 3.7-.1 6.9-1.2 10.2-2 .5 0 .9-.3 1.5-.3 1.8-.4 3.7-.7 5.6-.8-.8 1.1-1.3 2.3-1.7 3.6-.5 1.1.8 1.2 1.2 1.8-1.2.4-2.1 1.2-3.3 1.7-2.5-.1-4.7.9-7.1 1.2 0 .5.8.4.9.9-.1.4-.5.4-.8.6 0 .2 0 .3.2.3.2-.3.8-.1 1-.4.8 0 1.5-.2 2.2-.3.7-.3 1.4-.3 2-.8.8-.2 1.3-.8 2.2-1 1.2 0 2.3-.4 3.4-.5v.2c-.9 1.5-1.9 3-2.8 4.4-.2.3 0 .6.3.6.6.2 1.1 0 1.5-.2.8-1.4 1.6-2.8 2.3-4.3.3-1.4 1.3-2.1 2.3-3 .2-.1.4-.3.6-.1-.8.9-1.3 1.8-1.9 2.8-.3 1.1-.4 2.6.6 3.5.5.4 1.2.3 1.8.3 1.5-.8 3.5.5 4.7-1 .7-.1.8.7 1.2 1.1.7.2 1.4.9 2.1.4 0-.4-.5-.8-.8-1.2-.5-.8-1.1-1.5-1.5-2.3-.2-.6-.6-.9-.6-1.5.7.2 1.3.7 2.1.8.7.3 1.5.2 2.1.6.5.7 1.3 1.1 2 1.5 1 .5 2.1.6 3.1 1 .4 0 1 .4 1.3 0-.2-.2-.4-.3-.6-.4-.1-.5.7-.2 1-.6-.1-.2-.3-.3-.5-.3-.6-.3-2-.4-2.4-.6-.5-.1-.9-.3-1.4-.4-2.4 0-3.7-2.2-5.6-3 .4-.4 1.1-.7 1.4-1.3.4-.6.5-1.5.1-2.1-.4-1.2-1.9-1.1-2.9-1.8l.1-.1c1.5-.1 2.9.3 4.3.6 3.8.5 7.3 2 11.3 2 2.2 0 4.9.1 6-2 .2-1.2.4-2.5.6-3.7.9-2 2.2-3.8 2-6z"/></g></svg>